<svg xmlns="http://www.w3.org/2000/svg" version="1.1" width="600px" height="600px" viewBox="0 0 200 200" style="overflow:hidden!important;"><g id="svga-group-wrapper"><g id="svga-group-backs-single"></g><g id="svga-group-humanwrap-move" transform="matrix(1,0,0,1,0,0)"><g id="svga-group-humanwrap"><g id="svga-group-hair-back-move" transform="matrix(1,0,0,1,0,0)"><g id="svga-group-hair-back"><path id="SvgjsPath67436" d="M121 39.3s4.6-18-21.5-18.6c0 0-6.7-6.5-20.5-1.7 0 0-12.7.4-19.8 11.7 0 0-15 6.3-15.9 32.4 0 0-5.2 12.7 4.4 33.8s.4 39.5-4.4 48-7.3 26.7 6.9 36.8 10.4 21.7 9.4 24.4c0 0 12.5-5 13.4-12.7s-3.1-6.5-1.7-12.1 7.1-5.4 10.2-14.4c3.1-9 0-23-1.9-31.5s-5.4-42.8 3.8-55.1 25.3-23 30.7-28.4c5.4-5.4 6.9-12.6 6.9-12.6z" fill="#955932" stroke-width="none" opacity="1"></path><path id="SvgjsPath67437" d="M101.4 30s-1.1-14.2-20.7-10.3S57 51 59.1 62.7c0 0 .4-24.5 11.5-34.3s26.3-7.6 30.8 1.6z" fill="#a46c47" stroke-width="none" opacity="1"></path><path id="SvgjsPath67438" d="M83.5 37.7S82 35.1 85 31.6c3-3.5 15.7-4.9 21.4-2.7s4.8 3.7 5 4.7c0 0-18-.3-27.9 4.1z" fill="#000000" stroke-width="none" opacity="1"></path></g></g><g id="svga-group-humanbody-back"><path id="SvgjsPath67221" d="m168.5 219.5-1.7-21.5s.7-9-8.8-15.3-23.4-10.1-29.5-14.2c-6.1-4.1-9.2-4.5-9-16.9s.9-40.3.9-40.3H79.6s.7 27.9.9 40.3c.2 12.4-2.9 12.8-9 16.9-6.1 4.1-20 7.9-29.5 14.2S33.2 198 33.2 198l-1.6 21.5h136.9z" fill="#ebaa82" stroke-width="none" opacity="1"></path></g><g id="svga-group-chinshadow-single"><path id="SvgjsPath67217" d="M83.1 156.9c5 5.2 12.1 7.4 16.9 7.4s12-2.1 16.9-7.4c.86-.92 1.73-1.91 2.61-2.96-.02-.73-.02-1.5-.01-2.34.2-12.4.9-40.3.9-40.3H79.6s.7 27.9.9 40.3c.01.85.01 1.64-.01 2.38.88 1.04 1.76 2.01 2.61 2.92z" fill="#cc7b48" stroke-width="none" opacity="0.65"></path></g><g id="svga-group-humanbody-front"><path id="SvgjsPath67222" d="M73.8 175.9c5.1 2.9 11.8 5.2 17.6 5.7.4 0 .4-.6.1-.7-2.8-1.1-5.9-1.7-8.8-2.6-2.9-.9-5.8-2-8.8-2.7-.1-.1-.3.2-.1.3zm35.2 6.2c5.3-.6 11.3-3 15.9-5.8.3-.2.1-.6-.2-.5-2.6.9-5.2 2-7.8 2.9-2.6.9-5.4 1.5-8 2.5-.5.1-.5.9.1.9z" fill="#cc7b48" stroke-width="none" opacity="1"></path><path id="SvgjsPath67223" d="m168.4 219.4-2.1-21.4c0-2.2-.5-4.5-1.5-6.6-.9-2.1-2.3-3.9-3.9-5.5s-3.5-2.8-5.5-4c-2-1.2-4.1-2.2-6.2-3.1-4.2-1.9-8.6-3.6-12.9-5.4-2.2-.9-4.3-1.9-6.4-3-1.1-.6-2.1-1.2-3-1.9-1-.6-2-1.2-3-1.9s-2-1.5-2.8-2.6c-.8-1-1.3-2.2-1.7-3.4-.7-2.4-.8-4.8-.8-7.2 0-4.7.2-9.4.3-14.1.2-9.4.6-18.7.9-28l.6.6-20.4-.2-20.4-.1.3-.3.7 28c.1 4.7.3 9.3.4 14 0 2.4-.1 4.7-.8 7.1-.3 1.2-.9 2.3-1.6 3.3-.8 1-1.7 1.8-2.7 2.5s-2 1.3-2.9 2c-.9.6-1.9 1.3-3 1.9-2.1 1.2-4.2 2.1-6.4 3.1-4.3 1.9-8.6 3.6-12.8 5.6-2.1 1-4.2 2.1-6.1 3.2-2 1.2-3.8 2.4-5.4 4-1.6 1.6-2.9 3.4-3.8 5.4-.4 1-.8 2.1-1 3.1-.2 1.1-.4 2.2-.3 3.2v.2l-1.5 21.5-1-1.1 34 .1c11.3 0 22.7.1 34.1.2l34.2.3 34.4.5zm.2.2-34 .4-34.2.3c-11.4.1-22.9.2-34.4.2l-34.4.1h-1.1l.1-1.1 1.7-21.5v.1c-.1-5.1 2.2-9.8 5.7-13.3 1.7-1.7 3.8-3.1 5.8-4.3 2-1.2 4.2-2.2 6.3-3.2 4.3-2 8.7-3.7 13-5.4 2.1-.9 4.3-1.8 6.3-2.9 1-.5 1.9-1.1 3-1.8 1-.6 2-1.2 2.9-1.9.9-.6 1.8-1.4 2.4-2.2.7-.9 1.2-1.9 1.5-2.9.6-2.1.8-4.5.8-6.8 0-4.6-.1-9.3-.2-14l-.6-28v-.3h.3l20.4-.1 20.4-.2h.6v.6c-.1 9.3-.2 18.7-.4 28-.1 4.7-.2 9.4-.2 14 .1 2.3.2 4.6.8 6.7.3 1.1.8 2 1.4 2.9.6.8 1.4 1.6 2.4 2.2.9.6 1.9 1.3 2.9 1.9 1 .7 1.9 1.3 2.9 1.8 2 1.1 4.1 2.1 6.3 3 4.3 1.8 8.6 3.6 12.9 5.6 2.1 1 4.2 2.1 6.2 3.3 2 1.2 4 2.6 5.7 4.3 3.4 3.4 5.6 8.1 5.4 13v-.1l1.4 21.6zm-112.8-.4 1.9-13.8.1 13.8h-2zm88.6 0-1.9-13.8-.1 13.8h2z" fill="#bd6630" stroke-width="none" opacity="1"></path></g><g id="svga-group-clothes-single"><path id="SvgjsPath67372" d="m50.8 220 8.2-26.1 40.6 18.4 41.4-18.4 8.2 26.1z" fill="#dcc96b" stroke-width="none" opacity="1"></path><path id="SvgjsPath67373" d="m150.1 219.7-4.3-13-4.3-13 7.7-16.3-1.8-.8-6.5 16.9c-3.4 1.6-6.9 3.2-10.3 4.7-3.4 1.5-6.9 3.1-10.3 4.6-6.8 3-13.7 5.9-20.6 8.8l-9.8-4.7c-3.4-1.6-6.7-3.1-10.1-4.7-6.8-3.1-13.6-6.1-20.4-9.1h-.2l-5.9-17.3-1.9.7 7.1 16.8c-.1.1-.1.2-.1.3l-4 13.4-3.7 13 24.2.5 24.6.4 12.4.1h12.4l24.8-.1h.3c.6-.2.8-.7.7-1.2zm-37.4-.7-12.2.1-24.6.4-25 .5 4.5-13.1 4.1-11.9 19.5 9c3.4 1.5 6.8 3.1 10.2 4.5l10.2 4.4c.2.1.3.1.5 0 6.8-3.2 13.7-6.4 20.6-9.5 3.4-1.6 6.9-3 10.4-4.6 3.3-1.4 6.6-2.9 9.9-4.3l3.7 12.6 3.6 11.9-23.2-.1-12.2.1z" fill="#bda736" stroke-width="none" opacity="1"></path></g><g id="svga-group-head" transform="matrix(1,0,0,1,0,0)"><g id="svga-group-ears-left-move" transform="matrix(1,0,0,1,0,0)"><g id="svga-group-ears-left"><path id="SvgjsPath67167" d="M65.1 101.2s-1.7-4.8-3.2-7.5-3.4-6-6.3-6.8c-2.9-.8-3.8 3.7-2.7 7.8 1.1 4.1 4 13.1 4.7 16.6s1.7 7.7 3.4 7.1 6.8-7.1 4.1-17.2z" fill="#ebaa82" stroke-width="none" opacity="1"></path><path id="SvgjsPath67168" d="M65.9 105.9c.1 1.6.1 3.2-.1 4.8-.5 3.1-1.8 6-3.8 7.9l-.4.3c-.2.1-.3.2-.5.3-.4.1-.9 0-1.3-.3-.7-.6-1.1-1.4-1.4-2.2-.6-1.6-.9-3.1-1.2-4.7-.3-1.5-.7-3-1.1-4.6l-1.2-4.6c-.4-1.5-.8-3-1.3-4.6l-.5-2.2c-.2-.8-.4-1.5-.6-2.3-.2-.8-.2-1.6-.2-2.4s.1-1.6.3-2.4.6-1.5 1.1-2c.6-.5 1.3-.6 2-.4 1.3.3 2.5 1.1 3.5 2.2s1.8 2.5 2.5 3.8c.7 1.4 1.3 2.8 1.9 4.3.6 1.5 1.1 2.9 1.6 4.4.3 1.6.6 3.1.7 4.7zM61.1 93c-.8-1.3-1.6-2.4-2.5-3.4s-2-1.7-3.1-2c-.5-.2-1-.1-1.5.2-.4.3-.8.8-1 1.5-.4 1.3-.5 2.9-.2 4.5.1.8.3 1.5.5 2.3s.4 1.5.7 2.3c.5 1.5 1 3 1.4 4.5.5 1.5 1 3 1.4 4.5.5 1.5.9 3 1.2 4.6.3 1.5.7 3.1 1.2 4.4.3.7.6 1.3.9 1.5.2.1.3.2.5.1.1 0 .2-.1.3-.2l.3-.3c.9-.8 1.6-1.9 2.3-3.1.6-1.2 1.1-2.5 1.5-3.9.7-2.8.6-6.1-.2-9.2-.9-3-2.1-5.8-3.7-8.3z" fill="#dc9164" stroke-width="none" opacity="1"></path><path id="SvgjsPath67169" d="M53.8 89.9c1.8-.8 3.4 1.3 4.6 3.1 1.5 2.3 2.5 5.2 2.8 8.2v.2c0 .2 0 .5.1.7 0 .2-.2.2-.2 0-.1-.4-.2-.8-.3-1.3 0-.1-.1-.2-.2-.3-1.2-.6-1.7-.3-1.7.8 0 .7.1 1.4.3 2.1.3 1.1.8 2.2 1.2 3.3.1.2-.2.4-.3.2-.9-1.5-2.4-5-1.4-6.8.5-.9 1.3-.8 1.8-.2-.5-1.9-1.1-4.1-2.1-5.9-2 4.2-.9 8.7.1 13.4 0 .2-.2.3-.2.1-1.3-4.4-2.6-10.1 0-13.7-1.1-2.1-2.6-3.7-4.5-3.6-.1.1-.2-.2 0-.3z" fill="#cc7b48" stroke-width="none" opacity="1"></path><path id="SvgjsPath67170" d="M61.1 108.8c.1 1.1 0 2.2-.5 3-.1.1-.2 0-.1-.1.3-.9.6-1.8.5-2.9-.1-.1 0-.2.1 0z" fill="#cc7b48" stroke-width="none" opacity="1"></path></g></g><g id="svga-group-ears-right-move" transform="matrix(1,0,0,1,0,0)"><g id="svga-group-ears-right"><path id="SvgjsPath67171" d="M134.9 101.2s1.7-4.8 3.2-7.5 3.4-6 6.3-6.8c2.9-.8 3.8 3.7 2.7 7.8-1.1 4.1-4 13.1-4.7 16.6s-1.7 7.7-3.4 7.1-6.8-7.1-4.1-17.2z" fill="#ebaa82" stroke-width="none" opacity="1"></path><path id="SvgjsPath67172" d="M134.9 101.2c.5-1.5 1.1-2.9 1.6-4.4s1.2-2.9 1.9-4.3 1.5-2.7 2.5-3.8c1-1.1 2.2-2 3.5-2.2.7-.2 1.4 0 2 .4.6.5.9 1.2 1.1 2 .2.8.3 1.6.3 2.4s-.1 1.6-.2 2.4c-.1.8-.4 1.6-.6 2.3l-.6 2.3c-.4 1.5-.8 3-1.3 4.6l-1.2 4.6c-.4 1.5-.8 3-1.1 4.6s-.6 3.2-1.2 4.7c-.3.8-.6 1.6-1.4 2.2-.4.3-.9.4-1.3.3-.2-.1-.3-.2-.5-.3l-.4-.3c-2-1.9-3.3-4.8-3.8-7.9-.3-1.6-.3-3.2-.1-4.8.1-1.7.4-3.2.8-4.8zm.1.1c-.8 3-.9 6.3-.2 9.2.4 1.4.9 2.7 1.5 3.9.6 1.2 1.4 2.3 2.3 3.1l.3.3c.1 0 .2.1.3.2.2.1.3 0 .5-.1.3-.3.7-.9.9-1.5.5-1.3.9-2.9 1.2-4.4.3-1.6.8-3.1 1.2-4.6.5-1.5 1-3 1.4-4.5.5-1.5 1-3 1.4-4.5.2-.7.5-1.5.7-2.3s.4-1.5.5-2.3c.3-1.5.2-3.1-.2-4.5-.2-.6-.6-1.2-1-1.5s-1-.3-1.5-.2c-1.1.3-2.1 1.1-3.1 2-.9 1-1.7 2.2-2.5 3.4-1.4 2.5-2.6 5.3-3.7 8.3z" fill="#dc9164" stroke-width="none" opacity="1"></path><path id="SvgjsPath67173" d="M146.2 89.9c-1.8-.8-3.4 1.3-4.6 3.1-1.5 2.3-2.5 5.2-2.8 8.2v.2c0 .2 0 .5-.1.7 0 .2.2.2.2 0 .1-.4.2-.8.3-1.3 0-.1.1-.2.2-.3 1.2-.6 1.7-.3 1.7.8 0 .7-.1 1.4-.3 2.1-.3 1.1-.8 2.2-1.2 3.3-.1.2.2.4.3.2.9-1.5 2.4-5 1.4-6.8-.5-.9-1.3-.8-1.8-.2.5-1.9 1.1-4.1 2.1-5.9 2 4.2.9 8.7-.1 13.4 0 .2.2.3.2.1 1.3-4.4 2.6-10.1 0-13.7 1.1-2.1 2.6-3.7 4.5-3.6.1.1.2-.2 0-.3z" fill="#cc7b48" stroke-width="none" opacity="1"></path><path id="SvgjsPath67174" d="M138.9 108.8c-.1 1.1 0 2.2.5 3 .1.1.2 0 .1-.1-.3-.9-.6-1.8-.5-2.9.1-.1 0-.2-.1 0z" fill="#cc7b48" stroke-width="none" opacity="1"></path></g></g><g id="svga-group-faceshape-wrap"><g id="svga-group-faceshape-single"><path id="SvgjsPath67203" d="M100.06 41.44C78.66 41.44 60.2 56.9 59 85.4c0 0 .35 20.61 3.05 28.21 1 3 11.92 22.35 21.12 32.05 5 5.2 11.95 7.2 16.75 7.2s11.8-2.52 16.7-7.72c9.3-9.8 19.94-28.25 20.94-31.15 2.7-7.7 3.43-28.59 3.43-28.59-1.19-28.4-19.53-43.96-40.93-43.96z" fill="#ebaa82" stroke-width="none" opacity="1"></path><path id="SvgjsPath67204" d="M100 41.3c-21.4 0-39.8 15.6-41 44.1 0 0 0 20.6 2.7 28.2 1 3 12.2 22.7 21.4 32.4 5 5.2 12.1 7.4 16.9 7.4s12-2.2 16.9-7.4c9.3-9.8 20.4-29.5 21.4-32.4 2.7-7.7 2.7-28.2 2.7-28.2-1.2-28.4-19.6-44.1-41-44.1zm30.1 16 .7 1 .6 1c1.6 2.6 2.9 5.4 3.9 8.3l1.1 3.3s1 4.2 1.3 5.7l.2 1.1.1.6.1.6.1 1.1c0 .4.1.8.1 1.1.1.8.1 1.5.2 2.3l.1 2.2-.1 2.3-.1 2.4c-.1 1.6-.1 3.2-.2 4.7-.2 3.2-.4 6.3-.7 9.4l-.1 1.2c0 .4-.1.8-.2 1.1l-.2 1.1-.2 1.1c-.1.8-.3 1.5-.4 2.2-.1.4-.2.7-.3 1s-.2.7-.3.9l-.4.9c-.1.3-1.2 2.4-1.6 3.1-.4.7-.8 1.4-1.1 2.1l-1.2 2.1c-1.6 2.7-3.2 5.5-4.9 8.1-1.7 2.7-3.4 5.3-5.3 7.9-1.8 2.5-3.7 5.1-5.8 7.4-1 1.1-2.1 2.1-3.2 3-1.2.9-2.5 1.7-3.8 2.3-1.3.7-2.8 1.2-4.2 1.6-1.4.4-2.9.6-4.4.7-1.5 0-3-.1-4.5-.4-1.5-.3-3-.7-4.4-1.3s-2.8-1.3-4.1-2.1c-1.3-.9-2.5-1.8-3.5-2.9l-1.6-1.7-1.5-1.8c-1-1.2-2-2.5-2.9-3.8-1.9-2.5-3.7-5.2-5.4-7.9-1.7-2.7-3.3-5.4-4.8-8.2l-1.1-2.1c-.4-.7-.7-1.4-1.1-2.1s-.7-1.4-1-2.1c-.2-.4-.3-.7-.5-1.1s-.3-.7-.4-1c-.4-1.4-.7-2.9-.9-4.4l-.3-2.4c0-.4-.1-.8-.1-1.2l-.1-1.2c-.2-3.1-.3-6.3-.4-9.5 0-1.6-.1-3.2-.1-4.8V85.5c-.02-3.75.7-7.4.7-7.4l.1-.6.2-1.1c1.1-6 3.1-11.9 6.4-17.2 1.6-2.6 3.5-5.1 5.7-7.3s4.7-4.1 7.5-5.7c.7-.4 1.4-.8 2.1-1.1l1.1-.5s1.8-.7 2.2-.8c0 0 1.9-.6 2.2-.7.4-.1 2.6-.7 3.4-.8l2.4-.4a38.663 38.663 0 0 1 9.6 0l2.4.4c.8.1 3.1.7 3.4.8.4.1.8.2 1.1.3 0 0 1.8.7 2.2.8l2.2.9c.7.3 1.4.7 2.1 1.1 2.7 1.5 5.2 3.5 7.5 5.7.3.3.5.6.8.8.3.3.5.6.8.8l.8.9c.3.3.5.6.7.9.4.7.9 1.3 1.3 2z" fill="#bd6630" stroke-width="none" opacity="1"></path></g></g><g id="svga-group-mouth-single-move" transform="matrix(1,0,0,1,0,0)"><g id="svga-group-mouth-single"><path id="SvgjsPath67155" d="M90 128.1s2 2.6 4 3.8 9.4 1.3 13.4-.2 7.5-6.6 8.1-7.8c0 0-2.9 1.9-7.1 1.5-4.3-.3-13.7.8-15.6 1.6s-2.8 1.1-2.8 1.1z" fill="#ff5027" stroke-width="none" opacity="1" transform="translate(0 3)"></path><path id="SvgjsPath67156" d="M117.2 121.6c-.5-.4-1-.6-1.6-.4-.4.1-.4.7-.1.8.1.1.2.1.3.2l-.6.6c-.7.8-2.3 2.2-5.3.8-3-1.4-5.1-1.8-7.1-.5s-2.7.9-4.6.2c-1.9-.6-4.3.4-5.5 1.7-1.2 1.3-2.2 2.6-4.1 2s-.8.5-.8.5c.2.1 1.5 1.1 2.5 1.4 1.1.2 2.1-.5 4.5-1.2s8.1-1.2 11.9-1.1c5.4.2 6.8-.6 8.3-1.8.7-.6 1.2-1.1 1.5-1.6.1.2.2.4.4.5.3.2.8.1.9-.3.2-.8-.2-1.4-.6-1.8z" fill="#f74419" stroke-width="none" opacity="1" transform="translate(0 3)"></path><path id="SvgjsPath67157" d="M95.7 129.5c3.4 0 7.4.1 10.8-.9.5-.1.5-.8 0-1-3.4-1-7.7-.1-10.9 1.2-.3.2-.3.7.1.7z" fill="#ff5a34" stroke-width="none" opacity="1" transform="translate(0 3)"></path></g></g><g id="svga-group-eyes-left-move" transform="matrix(1,0,0,1,0,0)"><g id="svga-group-eyes-left"><g id="svga-group-eyesback-left"><path id="SvgjsPath67290" d="M90.3 98.8s-2.6 1.5-5.2 2.1c-2.5.6-6.5 1.4-9.5.1s-2-3.1-2-3.1 3-3.3 6.7-4.3 6.8-.7 7.9 1c1.1 1.5 2.1 3.2 2.1 4.2z" fill="#ffffff" stroke-width="none" opacity="1"></path></g><g id="svga-group-eyesiriswrapper-left" transform="matrix(1,0,0,1,0,0)"><g id="svga-group-eyesiriscontrol-left" transform="matrix(1,0,0,1,0,0)"><g id="svga-group-eyesiris-left"><path id="SvgjsPath67238" d="M82 91.5c2.7 0 4.9 2.2 4.9 4.9s-2.2 4.9-4.9 4.9-4.9-2.2-4.9-4.9 2.2-4.9 4.9-4.9z" fill="#4e60a3" stroke-width="none" opacity="1"></path><path id="SvgjsPath67239" d="M82 91.8c2.6 0 4.6 2.1 4.6 4.6 0 2.6-2.1 4.6-4.6 4.6-2.6 0-4.6-2.1-4.6-4.6-.1-2.5 2-4.6 4.6-4.6m0-.5c-2.8 0-5.2 2.3-5.2 5.2s2.3 5.2 5.2 5.2 5.2-2.3 5.2-5.2-2.4-5.2-5.2-5.2z" fill="#253984" stroke-width="none" opacity="1"></path><path id="SvgjsPath67240" d="M84.4 92.1c-.1.3-.3.6-.5.9s-.4.6-.6.8c.1-.3.3-.6.5-.9.2-.2.4-.5.6-.8zm.7.6c-.2.3-.4.6-.6.8-.2.3-.4.5-.7.7.2-.3.4-.6.6-.8.3-.2.5-.5.7-.7zm-.8 1.9.6-.6c.2-.2.4-.4.7-.5l-.6.6c-.2.2-.4.4-.7.5zm.3.6c.3-.2.6-.3.8-.4.3-.1.6-.2.9-.2-.3.2-.6.3-.8.4-.3 0-.6.1-.9.2zm.2.5c.3-.1.6-.2.8-.2.3-.1.6-.1.9-.1-.3.1-.6.2-.8.2-.3.1-.5.1-.9.1zm.1.6c.1 0 .3 0 .4-.1h.4c.3 0 .6.1.8.2h-.9c-.1 0-.3 0-.4-.1 0 .1-.1.1-.3 0zm-.1.6c.3 0 .6.1.9.1s.6.2.8.3c-.3 0-.6-.1-.9-.1-.2-.1-.5-.2-.8-.3zm0 .7c.1 0 .3.1.4.1.1.1.2.1.4.2s.5.3.7.5c-.3-.1-.5-.2-.8-.3-.1-.1-.2-.1-.4-.2-.1-.2-.2-.2-.3-.3zm-.5.7c.3.1.5.2.7.4.2.2.4.3.6.5-.3-.1-.5-.2-.7-.4-.2-.1-.4-.3-.6-.5zm-.9-6.5c0 .3-.1.6-.2.9l-.3.9c0-.3.1-.6.2-.9l.3-.9zm-1.2 1.7c-.1-.3 0-.6 0-.9s.1-.6.2-.9c.1.3 0 .6 0 .9 0 .2-.1.6-.2.9zm-1-1.9c.1.3.2.6.2.9s.1.6.1.9l-.3-.9c0-.2-.1-.3-.1-.5.1-.1.1-.2.1-.4zm-1.1.4c.2.3.3.6.4.9s.2.6.2.9c-.2-.3-.3-.6-.4-.9s-.2-.6-.2-.9zm-.8.5c.2.2.4.5.6.8s.3.6.5.9c-.2-.2-.4-.5-.6-.8-.2-.3-.4-.6-.5-.9zm-1 .8.9.6c.3.2.6.5.8.8l-.9-.6-.8-.8zm-.3.9c.3.1.5.2.7.3.2.1.4.3.6.5-.3-.1-.5-.2-.7-.3-.2-.1-.4-.3-.6-.5zm-.4 1c.2 0 .5 0 .7.1s.4.1.7.3c-.2 0-.5 0-.7-.1s-.5-.1-.7-.3zm-.2 1.1c.3-.1.5-.1.8-.1s.5 0 .8.1c-.3.1-.5.1-.8.1s-.5 0-.8-.1zm.1.9c.2-.1.5-.2.7-.2.2-.1.5-.1.8-.1-.2.1-.5.2-.7.2-.3.1-.5.1-.8.1zm.1.8c.3-.2.5-.2.8-.3s.6-.2.9-.2c-.3.2-.5.2-.8.3-.3.1-.6.2-.9.2zm.4.9c.2-.2.5-.3.7-.4s.5-.2.8-.3c-.2.2-.5.3-.7.4-.2.1-.5.2-.8.3zm.8.8c.1-.2.3-.4.4-.6.2-.2.3-.3.6-.5-.1.2-.3.4-.4.6s-.4.4-.6.5zm.8.8c.1-.3.2-.6.4-.9.2-.3.3-.6.5-.8-.1.3-.2.6-.4.9-.1.3-.3.5-.5.8zm1.1.3c0-.3 0-.5.1-.8s.1-.5.3-.7c0 .3 0 .5-.1.8-.1.3-.1.5-.3.7zm2.5-1.6c.1.2.2.5.3.7s.1.5.2.8c-.1-.2-.2-.5-.3-.7-.1-.3-.2-.6-.2-.8zm.7-.3.5.5c.1.2.3.4.3.6l-.5-.5-.3-.6zm-1.4.5c.1.2.1.5.2.7v.7c-.1-.2-.1-.5-.2-.7v-.7zm-.6.1c.1.2.1.5.1.7s0 .5-.1.7c-.1-.2-.1-.5-.1-.7s0-.5.1-.7z" fill="#253984" stroke-width="none" opacity="1"></path><path id="SvgjsPath67241" d="M82 93.6c1.5 0 2.8 1.3 2.8 2.8s-1.3 2.8-2.8 2.8-2.8-1.3-2.8-2.8 1.3-2.8 2.8-2.8z" fill="#000000" stroke-width="none" opacity="1"></path><path id="SvgjsPath67242" d="m81.3 94.2-.6-.6c-.2-.2-.4-.3-.7-.3-.2 0-.5.1-.7.3-.2.2-.3.4-.3.7s.1.5.3.7l.6.6c.2.2.4.3.7.3.2 0 .5-.1.7-.3.4-.4.4-1 0-1.4zm2.6 4.7c.9 0 .9-1.4 0-1.4s-.9 1.4 0 1.4z" fill="#ffffff" stroke-width="none" opacity="1"></path></g></g></g><g id="svga-group-eyesfront-left"><path id="SvgjsPath67298" d="M70.73 98.03c0 6.9 4.93 12.5 11.02 12.5s11.02-5.6 11.02-12.5-4.93-12.5-11.02-12.5-11.02 5.59-11.02 12.5zm2.94-.21s3.04-3.27 6.7-4.31c3.66-1.04 6.84-.67 7.9.96 1.06 1.63 2 3.34 2.02 4.32 0 0-2.62 1.46-5.17 2.07-2.55.61-6.49 1.39-9.47.06-2.98-1.34-1.98-3.1-1.98-3.1z" fill="#ebaa82" stroke-width="none" opacity="1"></path><path id="SvgjsPath67299" d="M71.63 101.03c-.03.08.07.14.14.1.37-.2.67-.51 1.01-.75.19-.13.39-.25.59-.38.16.22.37.43.61.62-.08.07-.16.15-.23.22-.22.22-.5.51-.59.81-.04.14.13.2.22.13.23-.18.41-.47.62-.69.08-.09.18-.17.28-.25.31.2.65.38 1.01.53-.36.36-.63.82-.61 1.34 0 .13.16.17.23.06.26-.41.47-.85.74-1.26 1.05.39 2.18.59 2.93.61 3.98.08 8.21-1.2 11.62-3.21.01 0 .01-.01.02-.02.03.09.07.17.1.26.02.07.12.06.13-.02.13-1.7-.32-3.3-1.21-4.55.35-.08.68-.27.91-.56.07-.1-.05-.25-.16-.21-.36.14-.7.28-1.05.39-.23-.28-.49-.54-.77-.77.11-.08.23-.15.33-.25.29-.29.63-.71.66-1.14.01-.14-.19-.22-.27-.11-.26.3-.39.68-.67.97-.1.11-.22.21-.33.31-.32-.24-.67-.44-1.05-.6.41-.42.69-.98.61-1.54-.02-.15-.25-.17-.32-.04-.2.4-.29.82-.58 1.17-.06.08-.15.14-.22.21-.51-.17-1.06-.28-1.64-.31.07-.16.12-.33.09-.49-.02-.12-.2-.13-.26-.03-.09.14-.11.32-.19.47-.01.02-.03.03-.03.04-.19 0-.38 0-.58.02-.79.08-1.6.28-2.4.54.06-.54-.03-1.08-.35-1.55-.06-.08-.22-.06-.21.06.04.56.08 1.12 0 1.68-.48.18-.95.38-1.42.59-.05-.17-.11-.33-.17-.5-.1-.26-.2-.53-.33-.77-.06-.12-.21-.05-.22.06-.06.44.05.99.3 1.4-.41.2-.81.4-1.2.61-.19-.21-.32-.47-.53-.66-.1-.09-.25-.02-.26.11-.02.31.19.56.44.74l-1 .56c-.2.11-.39.23-.59.35-.64-.1-1.24-.39-1.81-.73-.11-.07-.2.08-.13.17.39.5.92.76 1.49.86-.27.18-.52.38-.77.59-.88.19-1.7.2-2.66.04-.18-.03-.29.19-.12.29.58.37 1.29.51 1.99.45-.5.58-.89 1.23-1.08 1.99-.06.25.2.39.39.3l.06.21c-.25.14-.48.33-.68.5-.35.31-.67.63-.83 1.03zm2.28-2.83c1.95-2.41 4.92-4.05 7.99-4.62 4.22-.79 6.88 1.56 8.27 5.22-.01 0-.02-.01-.03 0-4.19 1.67-13.42 4.76-16.23-.6z" fill="#092e0c" stroke-width="none" opacity="1"></path></g></g></g><g id="svga-group-eyes-right-move" transform="matrix(1,0,0,1,0,0)"><g id="svga-group-eyes-right"><g id="svga-group-eyesback-right"><path id="SvgjsPath67291" d="M109.7 98.8s2.6 1.5 5.2 2.1c2.5.6 6.5 1.4 9.5.1s2-3.1 2-3.1-3-3.3-6.7-4.3-6.8-.7-7.9 1c-1.1 1.5-2.1 3.2-2.1 4.2z" fill="#ffffff" stroke-width="none" opacity="1"></path></g><g id="svga-group-eyesiriswrapper-right" transform="matrix(1,0,0,1,0,0)"><g id="svga-group-eyesiriscontrol-right" transform="matrix(1,0,0,1,0,0)"><g id="svga-group-eyesiris-right"><path id="SvgjsPath67243" d="M118 91.5c2.7 0 4.9 2.2 4.9 4.9s-2.2 4.9-4.9 4.9-4.9-2.2-4.9-4.9 2.2-4.9 4.9-4.9z" fill="#4e60a3" stroke-width="none" opacity="1"></path><path id="SvgjsPath67244" d="M118 91.8c2.6 0 4.6 2.1 4.6 4.6 0 2.6-2.1 4.6-4.6 4.6-2.6 0-4.6-2.1-4.6-4.6s2.1-4.6 4.6-4.6m0-.5c-2.8 0-5.2 2.3-5.2 5.2s2.3 5.2 5.2 5.2 5.2-2.3 5.2-5.2-2.3-5.2-5.2-5.2z" fill="#253984" stroke-width="none" opacity="1"></path><path id="SvgjsPath67245" d="M120.5 92.1c-.1.3-.3.6-.5.9s-.4.6-.6.8c.1-.3.3-.6.5-.9.2-.2.3-.5.6-.8zm.7.6c-.2.3-.4.6-.6.8-.2.3-.4.5-.7.7.2-.3.4-.6.6-.8.2-.2.4-.5.7-.7zm-.9 1.9.6-.6c.2-.2.4-.4.7-.5l-.6.6c-.2.2-.4.4-.7.5zm.3.6c.3-.2.6-.3.8-.4.3-.1.6-.2.9-.2-.3.2-.6.3-.8.4-.3 0-.6.1-.9.2zm.3.5c.3-.1.6-.2.8-.2.3-.1.6-.1.9-.1-.3.1-.6.2-.8.2-.3.1-.6.1-.9.1zm.1.6c.1 0 .3 0 .4-.1h.4c.3 0 .6.1.8.2h-.9c-.1 0-.3 0-.4-.1 0 .1-.2.1-.3 0zm-.2.6c.3 0 .6.1.9.1s.6.2.8.3c-.3 0-.6-.1-.9-.1-.2-.1-.5-.2-.8-.3zm0 .7c.1 0 .3.1.4.1.1.1.2.1.4.2s.5.3.7.5c-.3-.1-.5-.2-.8-.3-.1-.1-.2-.1-.4-.2 0-.2-.2-.2-.3-.3zm-.4.7c.3.1.5.2.7.4.2.2.4.3.6.5-.3-.1-.5-.2-.7-.4-.3-.1-.5-.3-.6-.5zm-.9-6.5c0 .3-.1.6-.2.9l-.3.9c0-.3.1-.6.2-.9 0-.3.1-.6.3-.9zm-1.2 1.7c-.1-.3 0-.6 0-.9s.1-.6.2-.9c.1.3 0 .6 0 .9-.1.2-.1.6-.2.9zm-1.1-1.9c.1.3.2.6.2.9s.1.6.1.9l-.3-.9c0-.2-.1-.3-.1-.5.1-.1.1-.2.1-.4zm-1 .4c.2.3.3.6.4.9s.2.6.2.9c-.2-.3-.3-.6-.4-.9-.1-.3-.2-.6-.2-.9zm-.9.5c.2.2.4.5.6.8s.3.6.5.9c-.2-.2-.4-.5-.6-.8-.2-.3-.4-.6-.5-.9zm-.9.8.9.6c.3.2.6.5.8.8l-.9-.6c-.3-.3-.6-.5-.8-.8zm-.3.9c.3.1.5.2.7.3.2.1.4.3.6.5-.3-.1-.5-.2-.7-.3-.2-.1-.4-.3-.6-.5zm-.4 1c.2 0 .5 0 .7.1s.4.1.7.3c-.2 0-.5 0-.7-.1-.3-.1-.5-.1-.7-.3zm-.2 1.1c.3-.1.5-.1.8-.1s.5 0 .8.1c-.3.1-.5.1-.8.1s-.6 0-.8-.1zm.1.9c.2-.1.5-.2.7-.2.2-.1.5-.1.8-.1-.2.1-.5.2-.7.2-.3.1-.6.1-.8.1zm0 .8c.3-.2.5-.2.8-.3s.6-.2.9-.2c-.3.2-.5.2-.8.3-.3.1-.6.2-.9.2zm.5.9c.2-.2.5-.3.7-.4s.5-.2.8-.3c-.2.2-.5.3-.7.4-.3.1-.5.2-.8.3zm.7.8c.1-.2.3-.4.4-.6.2-.2.3-.3.6-.5-.1.2-.3.4-.4.6-.2.2-.3.4-.6.5zm.9.8c.1-.3.2-.6.4-.9.2-.3.3-.6.5-.8-.1.3-.2.6-.4.9-.1.3-.3.5-.5.8zm1.1.3c0-.3 0-.5.1-.8s.1-.5.3-.7c0 .3 0 .5-.1.8-.1.3-.2.5-.3.7zm2.5-1.6c.1.2.2.5.3.7s.1.5.2.8c-.1-.2-.2-.5-.3-.7-.1-.3-.2-.6-.2-.8zm.7-.3.5.5c.1.2.3.4.3.6l-.5-.5-.3-.6zm-1.4.5c.1.2.1.5.2.7v.7c-.1-.2-.1-.5-.2-.7s-.1-.4 0-.7zm-.7.1c.1.2.1.5.1.7s0 .5-.1.7c-.1-.2-.1-.5-.1-.7s0-.5.1-.7z" fill="#253984" stroke-width="none" opacity="1"></path><path id="SvgjsPath67246" d="M118 93.6c1.5 0 2.8 1.3 2.8 2.8s-1.3 2.8-2.8 2.8-2.8-1.3-2.8-2.8 1.3-2.8 2.8-2.8z" fill="#000000" stroke-width="none" opacity="1"></path><path id="SvgjsPath67247" d="m117.3 94.2-.6-.6c-.2-.2-.4-.3-.7-.3-.2 0-.5.1-.7.3-.2.2-.3.4-.3.7s.1.5.3.7l.6.6c.2.2.4.3.7.3.2 0 .5-.1.7-.3.4-.4.4-1 0-1.4zm2.6 4.7c.9 0 .9-1.4 0-1.4s-.9 1.4 0 1.4z" fill="#ffffff" stroke-width="none" opacity="1"></path></g></g></g><g id="svga-group-eyesfront-right"><path id="SvgjsPath67300" d="M118.26 85.53c-6.08 0-11.02 5.6-11.02 12.5s4.93 12.5 11.02 12.5 11.02-5.6 11.02-12.5-4.94-12.5-11.02-12.5zm6.09 15.38c-2.98 1.33-6.92.55-9.47-.06-2.55-.61-5.17-2.07-5.17-2.07.02-.98.96-2.69 2.02-4.32 1.06-1.63 4.23-2 7.9-.96 3.66 1.04 6.7 4.31 6.7 4.31s1 1.77-1.98 3.1z" fill="#ebaa82" stroke-width="none" opacity="1"></path><path id="SvgjsPath67303" d="M127.57 100.03c-.2-.17-.43-.36-.68-.5a.83.83 0 0 0 .06-.21c.19.1.45-.05.39-.3-.18-.76-.58-1.42-1.08-1.99.7.06 1.42-.08 1.99-.45.16-.1.05-.32-.12-.29-.96.16-1.78.15-2.66-.04-.25-.21-.51-.4-.77-.59.57-.1 1.1-.36 1.49-.86.07-.09-.02-.24-.13-.17-.57.34-1.16.63-1.81.73-.2-.12-.39-.24-.59-.35-.32-.19-.66-.37-1-.56.25-.18.46-.43.44-.74-.01-.13-.16-.2-.26-.11-.21.19-.34.45-.53.66-.39-.21-.79-.42-1.2-.61.25-.41.36-.96.3-1.4-.01-.11-.16-.18-.22-.06-.13.24-.23.51-.33.77-.06.16-.12.33-.17.5-.47-.21-.94-.42-1.42-.59-.08-.56-.04-1.12 0-1.68.01-.12-.15-.14-.21-.06-.33.47-.41 1.01-.35 1.55-.8-.26-1.61-.47-2.4-.54-.2-.02-.39-.02-.58-.02-.01-.02-.03-.03-.03-.04-.08-.15-.1-.33-.19-.47-.06-.1-.23-.09-.26.03-.03.16.02.33.09.49-.58.03-1.13.13-1.64.31-.07-.07-.15-.13-.22-.21-.29-.35-.39-.77-.58-1.17-.06-.12-.3-.11-.32.04-.08.56.2 1.12.61 1.54-.37.17-.72.37-1.05.6-.11-.1-.23-.2-.33-.31-.28-.29-.41-.67-.67-.97-.09-.1-.28-.02-.27.11.03.43.37.85.66 1.14.1.1.22.17.33.25-.28.23-.54.49-.77.77-.35-.1-.69-.25-1.05-.39-.11-.04-.23.11-.16.21.23.3.55.48.91.56-.89 1.25-1.34 2.85-1.21 4.55.01.07.1.09.13.02.03-.09.07-.18.1-.26 0 .01.01.02.02.02 3.41 2.02 7.63 3.29 11.62 3.21.75-.02 1.88-.22 2.93-.61.27.41.48.85.74 1.26.07.1.23.06.23-.06.02-.52-.25-.98-.61-1.34.36-.15.7-.33 1.01-.53.1.08.2.17.28.25.2.22.39.5.62.69.1.08.26.01.22-.13-.09-.3-.36-.59-.59-.81-.07-.07-.15-.15-.23-.22.24-.19.45-.4.61-.62.2.13.4.25.59.38.34.24.65.55 1.01.75.06.04.17-.02.14-.1-.19-.43-.51-.75-.83-1.03zm-17.72-1.24h-.03c1.4-3.66 4.05-6.01 8.27-5.22 3.07.57 6.04 2.21 7.99 4.62-2.8 5.37-12.03 2.28-16.23.6z" fill="#092e0c" stroke-width="none" opacity="1"></path></g></g></g><g id="svga-group-facehighlight-single"></g><g id="svga-group-eyebrows-left-move" transform="matrix(1,0,0,1,0,0)"><g id="svga-group-eyebrows-left-rotate" transform="matrix(1,1.7453292519943295e-9,-1.7453292519943295e-9,1,1.4906981959939003e-7,-1.3912259078097122e-7)"><g id="svga-group-eyebrows-left"><path id="SvgjsPath67348" d="M68.7 87.4c.1-.1.3-.2.5-.3 0-.1.1-.2.2-.3 1.5-1 3.6-2.1 5.6-2.1.2-.1.4-.1.6-.2 1.9-.9 4.7-.9 6.6-.9 1.5-.3 3.2-.4 4.7.1.7 0 1.4 0 2.1.1.1 0 .1 0 .1.1h.1c.1-.2.4-.3.6-.1 0 0 0 .1.1.1h.2c.4.1.6.5.7.9.1-.2.1-.4.2-.6.1-.1.2-.2.3 0 .4.6.2 1.3-.2 1.9v.1c-.1.4-.3.8-.7 1.2-.3.2-.7.4-1 .4-.2.1-.4.1-.6 0l-.1.1c-.7.1-1.6.1-2.4 0h-.2c-.9 0-1.8 0-2.8-.1 0 .1-.1.1-.2.1-1.6.2-3.2.1-4.8 0-.8-.1-1.7-.1-2.6-.2-1.4.4-3.3.2-4.8-.1-.5.1-1 .2-1.6.1-.1 0-.1 0-.2-.1h-.4c0 .2-.3 0 0-.2z" fill="#a46c47" stroke-width="none" opacity="1"></path><path id="SvgjsPath67349" d="M88.8 87.5c.8-.3 1.3-.6 1.7-1.2.3-.6.4-1.3.6-2 .1-.2.4-.1.4 0 .2 1.2-.5 3.8-2.5 3.6-.3-.1-.5-.3-.2-.4zm-2.9-4.3c1 .3 1.5 1.1 1.9 1.8.4.8.2 1.7-.3 2.4-.1.1-.4 0-.3-.1.3-.8.4-1.6-.1-2.4-.3-.6-.8-1.1-1.4-1.6 0 .1.1-.1.2-.1zm-6.3.7c2.5-.5 5.6 1.7 6.2 3.7 0 .1-.2.2-.3.1-.7-.9-1.4-1.8-2.4-2.4-1.1-.7-2.2-.8-3.5-1.1-.2-.1-.2-.3 0-.3zm-4.7.3c2.4-.2 5.5 1.6 6.6 3.4.1.1-.1.3-.2.2-.9-.8-1.8-1.6-3-2.2-1.1-.5-2.3-.7-3.4-1.1-.2-.1-.1-.3 0-.3zm-4.3 1.7c2.6-.2 5.6.7 7.8 1.7.2.1.1.3-.1.3-1.2-.4-2.5-.8-3.8-1.1-1.3-.3-2.7-.3-4-.6-.1 0-.1-.3.1-.3zm-1.8 1.3c.8-.3 1.8-.2 2.7-.2 1.1.1 2.2.2 3.3.4.2.1.1.3-.1.2-1.8-.4-4.1-.6-5.8-.3-.1.2-.3 0-.1-.1z" fill="#b38160" stroke-width="none" opacity="1"></path><path id="SvgjsPath67350" d="M67.9 87.6c-.1.2.1.4.2.4 5.8.3 11.7.2 17.5.1 1.5 0 4.2.3 5.3-.8.9-.9.8-2.6.1-3.5 0-.1-.2 0-.2 0 .1.8.3 1.7 0 2.4-.3.8-1 1.1-1.9 1.3.9-.8 1.3-2.1 1.1-3.1 0-.1-.3-.1-.3 0 0 .6-.1 1.2-.4 1.8-.3.5-.7.9-1.1 1.3h-1.1c.7-1.2.4-2.9-.6-4 1.1.1 2.3.1 3.4.2.3 0 .3-.3.1-.4-4-1.2-9.1-.6-13.2.2-2.9.8-6.9 1.8-8.9 4.1zm13.7.1h-.8c.1 0 .1-.1.1-.2-1.1-1.4-2.8-2.7-4.8-3.1l1.8-.3c2.9-.5 5.7-.6 8.5-.4.8 1.3.9 2.6.4 4h-.6c0-1.5-1.1-3.3-2.9-3.8-.1 0-.2.1-.1.2.7.5 1.3 1 1.8 1.7.4.6.7 1.3.8 1.9h-4.2zm-12.8-.2c1.5-1.5 4.1-2.3 6.6-2.9 0 0 0 .1.1.1 2 .8 3.8 1.6 5.2 3-4 0-7.9 0-11.9-.2z" fill="#955932" stroke-width="none" opacity="1"></path></g></g></g><g id="svga-group-eyebrows-right-move" transform="matrix(1,0,0,1,0,0)"><g id="svga-group-eyebrows-right-rotate" transform="matrix(1,1.7453292519943295e-9,-1.7453292519943295e-9,1,1.4941888082375954e-7,-2.0964270674994623e-7)"><g id="svga-group-eyebrows-right"><path id="SvgjsPath67351" d="M131.4 87.4c-.1-.1-.3-.2-.5-.3 0-.1-.1-.2-.2-.3-1.5-1-3.6-2.1-5.6-2.1-.2-.1-.4-.1-.6-.2-1.9-.9-4.7-.9-6.6-.9-1.5-.3-3.2-.4-4.7.1-.7 0-1.4 0-2.1.1-.1 0-.1 0-.1.1h-.1c-.1-.2-.4-.3-.6-.1 0 0 0 .1-.1.1h-.2c-.4.1-.6.5-.7.9-.1-.2-.1-.4-.2-.6-.1-.1-.2-.2-.3 0-.4.6-.2 1.3.2 1.9v.1c.1.4.3.8.7 1.2.3.2.7.4 1 .4.2.1.4.1.6 0l.1.1c.7.2 1.6.2 2.5.1h.2c.9 0 1.8 0 2.8-.1 0 .1.1.1.2.1 1.6.2 3.2.1 4.8 0 .8-.1 1.7-.1 2.6-.2 1.4.4 3.3.2 4.8-.1.5.1 1 .2 1.6.1.1 0 .1 0 .2-.1h.2c.1.1.3-.1.1-.3z" fill="#a46c47" stroke-width="none" opacity="1"></path><path id="SvgjsPath67352" d="M111.2 87.5c-.8-.3-1.3-.6-1.7-1.2-.3-.6-.4-1.3-.6-2-.1-.2-.4-.1-.4 0-.2 1.2.5 3.8 2.5 3.6.3-.1.5-.3.2-.4zm2.9-4.3c-1 .3-1.5 1.1-1.9 1.8-.4.8-.2 1.7.3 2.4.1.1.4 0 .3-.1-.3-.8-.4-1.6.1-2.4.3-.6.8-1.1 1.4-1.6 0 .1-.1-.1-.2-.1zm6.3.7c-2.5-.5-5.6 1.7-6.2 3.7 0 .1.2.2.3.1.7-.9 1.4-1.8 2.4-2.4 1.1-.7 2.2-.8 3.5-1.1.2-.1.2-.3 0-.3zm4.7.3c-2.4-.2-5.5 1.6-6.6 3.4-.1.1.1.3.2.2.9-.8 1.8-1.6 3-2.2 1.1-.5 2.3-.7 3.4-1.1.2-.1.1-.3 0-.3zm4.3 1.7c-2.6-.2-5.6.7-7.8 1.7-.2.1-.1.3.1.3 1.2-.4 2.5-.8 3.8-1.1 1.3-.3 2.7-.3 4-.6.1 0 .1-.3-.1-.3zm1.8 1.3c-.8-.3-1.8-.2-2.7-.2-1.1.1-2.2.2-3.3.4-.2.1-.1.3.1.2 1.8-.4 4.1-.6 5.8-.3.1.2.3 0 .1-.1z" fill="#b38160" stroke-width="none" opacity="1"></path><path id="SvgjsPath67353" d="M123 83.7c-4-.8-9.2-1.4-13.2-.2-.2.1-.2.4.1.4 1.2-.1 2.3-.2 3.4-.2-1 1.1-1.3 2.7-.6 4h-1.1c-.4-.4-.9-.8-1.1-1.3-.3-.6-.4-1.2-.4-1.8 0-.1-.2-.2-.3 0-.2 1 .1 2.3 1.1 3.1-.8-.2-1.5-.5-1.9-1.3-.3-.8-.1-1.6 0-2.4 0-.1-.1-.1-.2 0-.7.9-.8 2.7.1 3.5 1.1 1.1 3.8.7 5.3.8 5.8.1 11.7.2 17.5-.1.2 0 .4-.2.2-.4-1.8-2.5-5.8-3.5-8.9-4.1zm-8.8 4c.2-.7.4-1.3.8-1.9.5-.7 1.2-1.2 1.8-1.7.1-.1 0-.2-.1-.2-1.7.6-2.9 2.3-2.9 3.8h-.6c-.5-1.4-.4-2.7.4-4 2.8-.1 5.6-.1 8.5.4.6.1 1.1.2 1.8.3-2 .4-3.8 1.7-4.8 3.1-.1.1 0 .1.1.2h-5zm5.1 0c1.5-1.5 3.2-2.3 5.3-3.1 0 0 .1 0 .1-.1 2.4.5 5 1.4 6.5 2.9-4 .3-7.9.3-11.9.3z" fill="#955932" stroke-width="none" opacity="1"></path></g></g></g><g id="svga-group-nose-single-move" transform="matrix(1,0,0,1,0,0)"><g id="svga-group-nose-single"><path id="SvgjsPath67328" d="M95.89 91.8c2.15 3.13 1.05 6.5.25 9.9-.79 3.39-1.6 6.77-2.38 10.17-.45 1.94-1.78 4.98-.43 6.84.77 1.06 2.42 1.38 3.07.05.09-.18-.13-.37-.28-.22-1.36 1.33-2.85-.45-2.82-1.9.02-.76.27-1.59.44-2.34.3-1.31.61-2.63.91-3.94.58-2.52 1.15-5.04 1.72-7.55.75-3.31 2.7-8.38-.33-11.13-.07-.07-.22.03-.15.12z" fill="#bd6630" stroke-width="none" opacity="1" transform="translate(0 2)"></path><path id="SvgjsPath67329" d="M103.08 89.87c-2.53 3.68-1.56 8.98-.28 12.92.83 2.56 1.92 5.02 2.83 7.55.43 1.21.82 2.44 1.11 3.7.18.77.37 1.58.42 2.37.06.52.04 1.04-.07 1.55-.33 1.36-1.25 1.64-2.75.86-.14-.18-.39.05-.3.23.74 1.5 2.64 1.05 3.33-.26 1.23-2.32-.41-6.05-1.19-8.26-1.18-3.34-2.71-6.56-3.57-10.01-.92-3.72-.62-7 .59-10.59.03-.09-.08-.12-.12-.06z" fill="#bd6630" stroke-width="none" opacity="1" transform="translate(0 2)"></path><path id="SvgjsPath67330" d="M95.13 117.52c1.73.67 2.82 2.59 4.83 2.64 1.83.04 2.53-1.72 4.03-2.43.14-.07.12-.33-.05-.36-.55-.09-.87.03-1.33.37-1.12.83-1.57 1.93-3.3 1.55-1.54-.34-2.52-2.33-4.18-2.08-.17.03-.12.26 0 .31z" fill="#bd6630" stroke-width="none" opacity="1" transform="translate(0 2)"></path><path id="SvgjsPath67331" d="M103.76 114.04c-.06-.59-.31-1.64-1.09-1.6-.81.04-.88 1.12-.98 1.71-.14.81-.35 1.74-1.19 2.1-.64.28-1.66.24-2.16-.3-.3-.33-.79.02-.71.41.35 1.57 1.93 2.27 3.45 1.84 1.69-.48 2.85-2.44 2.68-4.16z" fill="#f3b792" stroke-width="none" opacity="1" transform="translate(0 2)"></path><path id="SvgjsPath67332" d="M100.84 102.01c-.18-2.08-.11-4.2-.45-6.26-.04-.26-.5-.27-.54 0-.68 4.4.4 9.47 1.42 13.75.08.34.58.19.52-.14-.41-2.44-.73-4.9-.95-7.35z" fill="#f3b792" stroke-width="none" opacity="1" transform="translate(0 2)"></path></g></g><g id="svga-group-hair-front"><path id="SvgjsPath67432" d="M137.8 95.9s3.1-2.7 4.3-7 0-9.9 0-9.9 1.7-5.1-2.2-13.5c0 0 0-6.5-4.3-11.8 0 0 .5-9.1-11.1-14.9 0 0-2.7-3.4-8.7-3.6 0 0-4.1-3.4-10.3-3.4 0 0-4.3-1.7-8.7 0 0 0-3.4-1-5.8 1 0 0-2.9.5-6 3.4 0 0-3.1-.5-5.5 1.2 0 0-2.4.2-6.7 5S67.5 52 67.5 52s-4.6 1-4.8 9.1c0 0-2.9 2.7-2.9 8.4 0 0-2.4 1.9-1.7 7.9 0 0-1.4 6.5.5 11.8 1.9 5.3 3.1 3.1 3.1 3.1s1.9-2.2 1.9-5.8c0 0 2.9-4.3 2.4-8.4 0 0 2.5-1.9 2.5-4.5 0 0 3.6-2.9 3-5.3 0 0 3.7-.2 5.6-5 0 0 3.2.3 8-3 0 0 14.5 9.2 33 .4 0 0 3.2 3 7.3 2.8 0 0 2.6 7 6.3 7 0 0 2.2 4.6 4.3 4.6 0 0-.5 6.3 1.4 9.9.2.1-.5 8.2.4 10.9zm-37.1-74.1s14.3.7 18.7 12.7c0 0-4-6.6-18.7-12.7zm-42.2 11s-18.8 23.4-2.4 50.4c0 0-5.1-14.7-3.1-28.7 2-14 5.5-21.7 5.5-21.7zm-15.1 34S45.9 79 52 88.6c0 0-9.5-8.6-8.6-21.8z" fill="#a46c47" stroke-width="none" opacity="1"></path><path id="SvgjsPath67433" d="M69.5 142s11.4 14.3 6.2 32.9c-2.8 10.3-2.3 14.1-.8 19 1.6 4.8-8.9 5.6-11.8 8.4-2.9 2.8-4 5-3.6 7.5 0 0-3.3-5 .3-10.7s-10.5-16.6-14.3-21.4c-2.8-3.5-2.6-12.9-1-19.4.1-7.9 2.6-14.9 4.9-15.7.4 0 8.8 3.6 20.1-.6zm-8.1-56.6c0 .5.2 1 .5 1.4.1.1.2 0 .1-.1-.3-.4-.5-.8-.5-1.2 0-.1-.1-.1-.1-.1zm15.2-42.6c.1-.3-.3-.5-.5-.2-3.4 5.2-5.8 16.9 1.1 20.5.3.2.7-.3.4-.5-5.4-5.1-3.4-13.6-1-19.8zM63.7 85.9c-.9-1.9-1.9-3.8-2.4-5.9-.5-1.9-.5-3.8-.8-5.6-.1-.3-.5-.2-.5 0-.9 3.9.8 8.9 3.3 11.9.2.2.5-.1.4-.4zm4.6-12.8c.4.1.8-.3.5-.6-3.8-3.2-3.7-7-4.7-11.5-.1-.5-.7-.3-.8.1-.4 4.2.7 10.1 5 12zm3.6-5c.3.1.7-.2.4-.5-4.4-4.1-3.3-9.8-3.2-15.3 0-.4-.6-.4-.7-.1-1.7 4.6-1.8 13.5 3.5 15.9zm-6.2 9.3c-1.6-2.6-2.2-5.2-2.8-8.1-.1-.3-.5-.2-.6.1-.2 3 1.1 6 2.9 8.4.2.2.7-.1.5-.4zM83 39.8c.1-.2-.2-.4-.4-.2-3.1 4.9-3.8 15.8 1.1 19.9.3.2.7 0 .5-.4-2.5-5.7-3.9-13.4-1.2-19.3zm23-5.3c5.3 9.3 6.6 18.3-1.4 26.3-.3.3.1.7.4.5 11.1-4.7 6.3-19.8 1.2-27-.1-.1-.3 0-.2.2zm30.4 22.4c-.1-.5-.7-.3-.8.1-.3 2.3-.3 4.6-1 6.9-.7 2.2-2 4.2-3.2 6.2-.2.3.2.6.5.4 3.5-3 5.8-9.1 4.5-13.6zm-12.2-13.2c.8 3.1 2 6 2.1 9.3.2 3.2-.4 6.4-1.2 9.5-.1.3.4.6.6.2 2.7-5.8 2.8-14-1-19.3-.2-.2-.6-.1-.5.3zm15.4 23.5c0-.2-.4-.4-.5-.1-.5 2.8-1.1 5.3-2.5 7.8-.1.2.2.5.4.3 1.8-2.2 2.9-5.1 2.6-8zm1.4 11.6c-1.2 1.7-2.1 3.8-3 5.7-.1.3.2.5.4.3 1.3-1.7 2.5-3.8 2.8-5.9.2-.2-.1-.3-.2-.1zm-46.7-39c0-.2-.3-.2-.3 0-.1 7.3 2.1 14.4 5.8 20.6.1.2.4 0 .3-.2-3.5-6.5-5.1-13.1-5.8-20.4zm21.5-2.7c2.1 3.7 3.6 7.4 3.9 11.7.3 3.4-.6 6.6-.9 9.9 0 .3.5.4.6.2 3.8-6.6 1.4-16.4-3.2-22-.2-.3-.5-.1-.4.2zm-25.5-3.3c.1-.3-.4-.5-.5-.2-3.9 7.3-4.1 21.2 3 26.8.3.3.8-.2.5-.5-6.1-6.6-5.9-18.2-3-26.1zm6.9-.7c.5 2 1.4 3.9 2 5.9.6 2 1 4 1.6 6 .1.3.6.3.6-.1-.3-3.9-1.6-8.7-3.9-11.9 0-.2-.3-.2-.3.1z" fill="#955932" stroke-width="none" opacity="1"></path><path id="SvgjsPath67434" d="M53.7 120.5s-.5 13-6.8 24.6-5 24.1 2.7 33.7 14.3 14.8 11.8 20c-2.5 5.2-2.3 8.2-2.3 8.2s.7-4.8 4.8-8.9 2.3-8.6-6.2-15.7c-8.4-7.1-13.2-13.7-11.8-22.5 1.4-8.9 7.5-15.7 8.9-21.2 1.4-5.5-1.1-18.2-1.1-18.2zm7.5 16.6s-.5 14.8-4.1 22.8 1.4 15 6.2 19.4c4.8 4.3 6.6 7.7 7.3 10.7.7 3-2.5 5.2-3.6 6.8 0 0 5.5-1.4 5-7.3s-7.5-9.8-10-19.6c-2.6-9.8 2-12.1-.8-32.8zm7.1 7.5s-.5 9.8 2.1 16.2c2.5 6.4 4 13.2 2.4 20.2 0 0 2.2-4 2.6-14.3.5-10.2-3.5-7.5-7.1-22.1z" fill="#a46c47" stroke-width="none" opacity="1"></path><path id="SvgjsPath67435" d="M111.3 36.1c-.2-.2-.6.2-.4.4 2.6 3.6 5 6.6 5.6 11.2.8 5.6-1 11.2-6 14.2-.2.1 0 .3.2.3 9.7-4.5 9.2-20.7.6-26.1zm.8 3.1c-.1-.3-.6-.2-.5.1 2.1 8.4 3.6 18.2-5.5 23.1-.2.1-.1.5.2.5 9.3-4 9-15.7 5.8-23.7zm8.2.8c-.2-.3-.7 0-.5.3 3.4 7 5.8 13.5 2.3 21.1-.2.3.3.6.5.3 4.4-6.8 2.2-15.6-2.3-21.7zm10.1 5.1c-.1-.3-.6-.2-.5.1.4 1.4.8 2.7 1.1 4.1-.9-2.7-2.2-5.2-3.9-7.2-.1-.2-.4 0-.3.2 4.1 7 4.8 13.5 3.4 21.4-.1.4.5.6.6.2.9-2.4 1.4-5 1.3-7.6.1.3.6.2.6-.2.2-3.8-.9-7.6-2.3-11zm-26.2-9.5c-.1-.3-.6-.2-.5.1 1.8 5.6 2.5 11.2 2.4 17 0 .3.4.3.5 0 .8-5.8-.1-11.6-2.4-17.1zm-1 13.5c0-.3-.4-.3-.4 0 0 2.4-.2 4.8-.2 7.1 0 .3.4.3.5.1.4-2.4.4-4.8.1-7.2zM99 60.9c-4.8-7.7-7.1-14.6-6-23.7 0-.2-.2-.2-.3 0-2.1 8-.1 18.1 6 24 .1.1.4-.1.3-.3zm-2.5.6c-3.1-4.2-5.4-8.5-6.1-13.7 0-.3-.5-.2-.5.1.5 5.2 2.4 10.3 6.2 13.9.2.2.6-.1.4-.3zm-9.3-3.7c-3.7-5.5-5-11.4-3.8-18 .1-.3-.3-.4-.4-.1-2 6.3-.7 13.4 3.8 18.4.2.3.6 0 .4-.3zm-8.1 3c-4.9-6.1-3.7-13.1-.6-19.7.1-.2-.2-.5-.4-.2-3.6 6.2-5.4 14.9.7 20.2.2.2.5-.1.3-.3zm58.4 1c0-.3-.6-.4-.6 0 .1 3.2-.6 6.1-1.1 9.2-.1.4.5.7.6.3 1.3-2.9 1.4-6.4 1.1-9.5zm2.3 9.8c0 1.9-.5 3.5-1.1 5.3-.1.3.3.4.4.2 1-1.6 1.3-3.6 1.3-5.5 0-.4-.6-.4-.6 0zM71 49.2c.1-.2-.3-.4-.4-.2-2.2 4.7-1.2 10.1 1 14.6.1.2.5.1.4-.2-1.6-4.8-2.3-9.2-1-14.2zm-5.4 6.3c0-.2-.3-.3-.4 0-.8 4.1 0 8 1.3 11.9.1.2.3.1.3-.1-.8-4-1.7-7.8-1.2-11.8zm-2.9 8.7c0-.3-.5-.3-.5 0-.3 2-.1 4 .7 5.8.1.2.5.1.4-.2-.4-1.8-.7-3.6-.6-5.6zM61 70c0-.3-.4-.3-.5 0-.4 2.8-.1 5.9 1 8.5.1.3.6.1.5-.2-.5-2.8-1-5.5-1-8.3zm34.2-44.6c-12.3-6-27.2 3.4-29.5 16.2-.1.4.4.5.6.2C68.1 36.1 71.4 31 76.6 28c6-3.4 11.8-3.2 18.4-2.1.3.1.6-.4.2-.5zm17.1 5.4c-1.9-2.9-4.9-5.1-8.1-6.6-.3-.1-.5.2-.2.4 3 1.8 5.5 4 8 6.4.2.2.5 0 .3-.2zm-61.6 10c-6.7 9.9-6.1 26-.9 36.3.1.2.4.1.3-.1-4.4-10.7-5.3-25.7.9-36 .1-.2-.2-.4-.3-.2zm15-14.1C55.5 36.8 54.5 52.7 55 66.2c0 .4.5.4.6 0 .9-14.1 1-27.7 10.4-39.2.2-.2-.1-.5-.3-.3zm-6.6 151.2c-2.1-2-4.2-3.7-5.5-6.3-1.7-3.5-1.4-7.5-.5-11.1 1.3-5.5 4.1-10.5 5.3-16 1.1-4.9 1.1-10 0-14.8-.1-.4-.7-.3-.7.1.5 6.4.1 12.5-2.1 18.6-1.7 4.7-4.1 9.2-4.7 14.3-.4 3.8.2 7.8 2.4 10.9 3.2 4.6 10 6.6 10 13.1 0 .1.1.1.1 0 0-3.7-1.8-6.4-4.3-8.8zm11.1-.5c-3.5-7.5-3.8-14-3.4-22.2.2-5.1 0-9.9-2.7-14.3-.1-.2-.5-.1-.4.2 5 12-2.5 25.6 6.1 36.7.2.3.5-.1.4-.4z" fill="#b38160" stroke-width="none" opacity="1"></path></g><g id="svga-group-glasses-single-move" transform="matrix(1,0,0,1,0,0)"><g id="svga-group-glasses-single"><path id="SvgjsPath67382" d="M69.48 90.6c-1.59 2.84-1.5 8.86 1.59 14.13 3.09 5.27 11.87 5.6 17.13 3.01 5.27-2.59 7.36-7.77 7.61-11.62.25-3.84-2.93-6.02-4.68-6.69S79.51 87.42 75 88.09c-4.52.67-5.52 2.51-5.52 2.51z" fill="url(#SvgjsLinearGradient67383)" opacity="1"></path><path id="SvgjsPath67386" d="M130.52 90.6c1.59 2.84 1.5 8.86-1.59 14.13-3.09 5.27-11.87 5.6-17.13 3.01-5.27-2.59-7.36-7.77-7.61-11.62-.25-3.84 2.93-6.02 4.68-6.69s11.62-2.01 16.13-1.34c4.52.67 5.52 2.51 5.52 2.51z" fill="url(#SvgjsLinearGradient67387)" opacity="1"></path><path id="SvgjsPath67390" d="M118.88 110.33c-4.23 0-8.22-1.37-10.93-3.75-4.2-3.68-4.99-8.14-5.37-10.28-.09-.51-.16-.9-.25-1.15-.49-1.38-1.08-2.08-1.75-2.08h-1.16c-.67 0-1.26.7-1.75 2.08-.09.25-.16.65-.25 1.15-.38 2.14-1.17 6.6-5.37 10.29-2.72 2.38-6.7 3.75-10.93 3.75-2.75 0-5.4-.61-7.25-1.67-4.92-2.81-6.19-8.84-6.5-11.31-.4-3.11-1.63-3.71-2-3.82v-5.35c.34-.01 1.37-.05 2.28-.28.06-.01 5.71-1.39 11.19-1.39.9 0 1.76.04 2.54.12 5.16.51 9.31 1.49 12.35 2.21l.67.16c2.11.5 3.6.57 4.29.57.38 0 .58-.02.58-.02h1.51s.2.02.57.02c.7 0 2.18-.07 4.29-.57l.67-.16c3.03-.72 7.19-1.7 12.35-2.21.78-.08 1.63-.12 2.53-.12 5.48 0 11.13 1.37 11.19 1.39.91.23 1.94.27 2.28.28v5.35c-.37.11-1.6.7-2 3.82-.32 2.46-1.58 8.49-6.5 11.31-1.88 1.05-4.52 1.66-7.28 1.66zm2.22-21.71c-.73 0-1.46.02-2.15.05-1.27.05-6.58.44-9.29 1.37-2.72.93-4.54 2.76-4.74 4.76-.24 2.32.52 5.23 2.03 7.8 1.61 2.73 3.73 4.46 6.47 5.27 1.69.5 3.28.74 5.02.74 1.44 0 2.96-.16 4.65-.5 3.01-.59 5.23-2.81 6.6-6.58 1.21-3.32 1.41-8.31-.38-10.59-1.22-1.56-3.9-2.32-8.21-2.32zm-42.2 0c-4.31 0-6.99.76-8.21 2.32-1.78 2.28-1.58 7.27-.38 10.59 1.37 3.77 3.59 5.99 6.6 6.58 1.69.33 3.21.5 4.65.5 1.73 0 3.33-.23 5.02-.74 2.74-.82 4.86-2.54 6.47-5.27 1.51-2.56 2.27-5.48 2.03-7.8-.21-2.01-2.03-3.83-4.74-4.76-2.71-.93-8.02-1.32-9.29-1.37-.69-.03-1.41-.05-2.15-.05z" fill="#153a4d" stroke-width="none" opacity="1"></path><path id="SvgjsPath67391" d="M121.17 86.64c5.47 0 11.1 1.37 11.16 1.38.84.21 1.76.26 2.19.28v5.15c-.48.18-1.62.92-2 3.88-.31 2.44-1.57 8.43-6.44 11.22-1.84 1.05-4.46 1.65-7.19 1.65-4.2 0-8.16-1.36-10.86-3.72-4.17-3.65-4.95-8.09-5.33-10.22-.09-.53-.16-.91-.25-1.17-.52-1.46-1.13-2.16-1.86-2.16h-1.16c-.73 0-1.34.71-1.86 2.16-.09.26-.16.64-.25 1.17-.38 2.13-1.16 6.56-5.33 10.22-2.69 2.36-6.65 3.72-10.86 3.72-2.73 0-5.36-.6-7.19-1.65-4.88-2.79-6.13-8.77-6.44-11.22-.38-2.96-1.53-3.7-2-3.88V88.3c.43-.01 1.35-.07 2.19-.28.06-.01 5.69-1.39 11.16-1.38.9 0 1.75.04 2.52.11 5.15.51 9.3 1.49 12.33 2.21l.67.16c2.12.5 3.62.57 4.32.57.36 0 .56-.02.57-.02h1.5s.2.02.59.02c.7 0 2.2-.07 4.32-.57l.67-.16c3.03-.72 7.18-1.7 12.33-2.21.75-.07 1.6-.11 2.5-.11m-2.73 22.09c1.44 0 2.97-.16 4.67-.5 3.05-.6 5.3-2.84 6.69-6.66 1.22-3.35 1.41-8.39-.39-10.7-1.24-1.59-3.96-2.37-8.31-2.36-.65 0-1.36.02-2.15.05-1.28.05-6.6.44-9.32 1.38-2.76.95-4.61 2.81-4.82 4.86-.24 2.34.52 5.29 2.05 7.87 1.63 2.76 3.77 4.5 6.54 5.33 1.69.49 3.29.73 5.04.73m-36.88 0c1.74 0 3.35-.24 5.05-.74 2.78-.83 4.91-2.57 6.54-5.33 1.52-2.58 2.29-5.53 2.05-7.87-.21-2.05-2.06-3.92-4.82-4.86-2.72-.93-8.05-1.32-9.32-1.38-.8-.03-1.5-.05-2.15-.05-4.35 0-7.06.77-8.31 2.36-1.81 2.31-1.61 7.36-.39 10.7 1.39 3.82 3.64 6.06 6.69 6.66 1.69.35 3.22.51 4.66.51m39.61-22.32c-.87 0-1.72.04-2.55.12-5.56.55-9.93 1.64-13.03 2.37-2.07.49-3.52.57-4.27.57-.37 0-.56-.02-.56-.02h-1.52s-.19.02-.56.02c-.74 0-2.2-.08-4.27-.57-3.1-.73-7.47-1.82-13.03-2.37-.82-.08-1.68-.12-2.55-.12-4.99 0-10.28 1.16-11.22 1.39-1.09.27-2.37.27-2.37.27v5.56s1.55.18 2.01 3.74c.46 3.55 2.1 8.84 6.56 11.39 1.88 1.08 4.51 1.68 7.31 1.68 3.84 0 8.01-1.14 11.01-3.78 5.2-4.56 5.2-10.21 5.65-11.48.46-1.28 1-2.01 1.64-2.01h1.16c.64 0 1.18.73 1.64 2.01.46 1.28.46 6.93 5.65 11.48 3.01 2.64 7.17 3.78 11.01 3.78 2.8 0 5.43-.61 7.31-1.68 4.47-2.55 6.11-7.84 6.56-11.39.46-3.55 2.01-3.74 2.01-3.74v-5.56s-1.28 0-2.37-.27c-.93-.23-6.23-1.39-11.22-1.39zm-2.73 22.08c-1.86 0-3.46-.28-4.98-.73-2.66-.79-4.75-2.42-6.41-5.22-1.65-2.8-2.23-5.64-2.01-7.73.22-2.08 2.15-3.8 4.66-4.66 2.51-.86 7.53-1.29 9.26-1.36.69-.03 1.41-.05 2.14-.05 3.24 0 6.66.4 8.12 2.27 1.79 2.3 1.51 7.32.36 10.48s-3.08 5.83-6.51 6.51c-1.74.34-3.26.49-4.63.49zm-36.88 0c-1.37 0-2.89-.15-4.62-.49-3.43-.68-5.37-3.35-6.51-6.51-1.15-3.16-1.44-8.18.36-10.48 1.46-1.87 4.88-2.27 8.12-2.27.73 0 1.45.02 2.14.05 1.72.07 6.75.5 9.26 1.36 2.51.86 4.45 2.58 4.66 4.66.22 2.08-.36 4.93-2.01 7.73-1.65 2.8-3.75 4.43-6.41 5.22-1.53.46-3.13.73-4.99.73z" fill="#03202e" stroke-width="none" opacity="1"></path></g></g></g></g></g><rect id="svga-credit-rect" width="200" height="15" x="0" y="185" fill="#ecf0f1" opacity="0.5" style="display: none;"></rect><text id="svga-credit-text" font-family="Avenir Next, Roboto, Helvetica, Arial, sans-serif" font-size="10px" text-anchor="start" font-weight="400" size="10px" anchor="start" weight="400" fill="#333333" x="33.43669891357422" y="182.60824704170227" style="display: none;"><tspan id="SvgjsTspan67149" dy="13" x="33.43669891357422">Created on AvatarMaker.com</tspan></text></g><defs id="SvgjsDefs67101"><linearGradient id="SvgjsLinearGradient67383" x1="82.14" y1="87.906" x2="82.14" y2="109.3074" gradientUnits="userSpaceOnUse" class="svga-on-canvas-glasses-gradient-single-0-null"><stop id="SvgjsStop67384" stop-opacity="1" stop-color="#9bc2cf" offset="0" ></stop><stop id="SvgjsStop67385" stop-opacity="0" stop-color="#6086c4" offset="1" ></stop></linearGradient><linearGradient id="SvgjsLinearGradient67387" x1="-17.86" y1="87.906" x2="-17.86" y2="109.3074" gradientTransform="matrix(-1 0 0 1 100 0)" gradientUnits="userSpaceOnUse" class="svga-on-canvas-glasses-gradient-single-1-null"><stop id="SvgjsStop67388" stop-opacity="1" stop-color="#9bc2cf" offset="0" ></stop><stop id="SvgjsStop67389" stop-opacity="0" stop-color="#6086c4" offset="1" ></stop></linearGradient></defs></svg>