<svg xmlns="http://www.w3.org/2000/svg" version="1.1" width="600px" height="600px" viewBox="0 0 200 200" style="overflow:hidden!important;"><g id="svga-group-wrapper"><g id="svga-group-backs-single"></g><g id="svga-group-humanwrap-move" transform="matrix(1,0,0,1,0,0)"><g id="svga-group-humanwrap"><g id="svga-group-hair-back-move" transform="matrix(1,0,0,1,0,0)"><g id="svga-group-hair-back"><path id="SvgjsPath67780" d="M119.8 26.1s4.5-17-22.8-16.6c0 0-18.4-9.8-34.6 10.5 0 0-15.6 3.8-15.6 30.5 0 0-3.8 14.9 5.4 39.1s-7 38.7-9.5 52.4c-2.5 13.6 8.3 19.1 16.5 27.3 8.3 8.3 4.8 15.2 1 17.5 0 0 14.6-6 14-16.2s-2.2-14.3.6-16.5 14.9-10.2 15.9-21.6c.9-11.4 27.2-99.4 27.2-99.4l1.9-7z" fill="#ffffff" stroke-width="none" opacity="1"></path><path id="SvgjsPath67781" d="M118.3 15.5c-3.7-4.8-10.9-7.1-21.2-7-2.3-1.1-20-8.5-35.4 10.6H61.4c-.2 0-.4.1-.5.2-3.7 1.4-15.2 7.7-15.2 31-.4 1.6-3.4 16.3 5.5 39.5 6.2 16.4.6 28.2-4.5 38.6-2.2 4.6-4.3 9-5.1 13.3-2.1 11.4 4.5 17.3 11.6 23.5 1.7 1.5 3.5 3.1 5.2 4.7 4.4 4.4 5 8.1 4.7 10.4-.4 2.8-2.1 4.6-3.5 5.5-.5.3-.6.8-.4 1.3.2.4.5.6.9.6.1 0 .3 0 .4-.1.4-.2 5.9-2.5 10.1-6.7.1 0 .2-.1.3-.2.2-.2.4-.5.6-.7 2.3-2.6 3.9-5.8 3.7-9.6-.2-2.8-.4-5.2-.6-7.1-.6-5.4-.7-7.4.9-8.6.2-.2.6-.4.9-.7 3.9-2.9 14.4-10.7 15.3-21.6.9-11.2 26.9-98.3 27.1-99.2l2-6.9c0-.2 1.4-5.8-2.5-10.8zM86 8c5.9 0 10.1 2.1 10.5 2.3.2.1.3.1.5.1h.2c1.8 1.6 3 3.6 3.7 5.8-1.7-.1-3.4 0-5 .2-2.6-4.2-6.8-7.2-11.9-8.3.6-.1 1.3-.1 2-.1zm-10.3 2.2c1.2-.6 2.4-1 3.6-1.3 6.4-.1 11.9 2.9 15.1 7.7-.6.1-1.1.2-1.6.4-4.1-4.9-10.5-7.5-17.1-6.8zM47.8 49.4c4.3-6.9 12.1-9.4 19.4-6.5-7.3-1.9-14.7.6-19.4 6.5 0 .1 0 0 0 0zm6.1-21.9c6.8-4.1 14.6-3.1 19.9 2-4.3-1.3-9.6 0-13.6 1.9-5.1 2.4-9.2 6.3-11.9 11.2.9-7.1 3.2-11.9 5.6-15.1zm12.5 74.7c.3 13.8-8.5 25-13.5 37.4-3.3 8.1-2.8 15.4.5 22.3-3.5-5.7-5.2-12.4-4.6-19.2.8-8.6 5.2-16.2 9-23.8 3.2-6.4 6-13.5 6.1-20.5.8 1.2 1.7 2.5 2.5 3.8zm-6.6 66.3c-.9-.9-1.8-1.7-2.7-2.5-3.4-4.9-5.8-10.4-5.5-16.5.4-6.9 4.1-13.4 7.2-19.4 4.2-8.2 8.4-16.6 8.8-25.8.1.1.2.3.2.4 4.7 8.7 4.5 16.7-1.2 24.8-3.9 5.5-9 10.4-10.7 17.2-1.3 5.2.2 9.8 3.4 14.1 2.1 2.9 4.8 5.3 6.7 8.3 2.7 4.2 3.7 11.1-1.4 13.7.2-.7.5-1.4.6-2.2.2-2.8-.4-7.2-5.4-12.1zm59-142.7-2 6.8c-1.1 3.6-26.2 88.2-27.2 99.6-.8 10-10.8 17.4-14.5 20.2-.4.3-.7.5-1 .7-2.5 2-2.2 4.9-1.6 10.4.1 1.4.3 2.9.4 4.6-.4-1.2-1-2.4-1.6-3.6-2.4-4.8-4.2-9.1-2.8-14.5 1-4.1 3.4-7.7 6.1-10.9 7.7-9 19.6-16.9 18.1-30.3-.1-.8-1.3-.8-1.2 0 1.7 15-13.7 22.4-20.8 33.4-2.6 4-4.4 8.9-3.8 13.7.6 5.5 5.1 10.3 5.8 15.7-.2-.7-.4-1.3-.7-2-3.2-7.3-8.9-11.7-7.1-20.6 2.8-13.5 16.6-21.3 20.4-34.5.2-.8-1-1.1-1.2-.3-3.6 12.2-15.2 19.4-19.5 31.2-1.6 4.4-2 9.2-.4 13.6 1.9 5.1 8.5 10.9 7.7 16.7-.8 1.5-1.9 2.9-3.1 4.1.4-.9.7-1.9.8-3 .5-5.3-3.2-9.6-6.4-13.4-3-3.5-6-6.9-6.4-11.7-.5-5.2 2.1-9.8 5-13.9 3.7-5.2 8.6-9.9 10.3-16.2 2-7.2-.6-13.7-4.4-19.6 0-.9-.1-1.8-.2-2.6s-1.3-.8-1.2 0c0 .2 0 .4.1.6-.8-1.2-1.6-2.3-2.5-3.4-.2-3.9-1.4-7.7-3.9-11.3-.5-.7-1.5 0-1.1.6 2 2.9 3.2 5.9 3.7 8.9-1.7-2.3-3.3-4.6-4.7-6.8-4.7-7.7-6.3-16.6-2.2-24.9 3.5-7.1 10.2-11.5 17.9-12.8.8-.1.5-1.3-.3-1.2-10.8 1.8-19.5 10.1-21 21.1-1.5 10.9 4.8 18.6 10.6 26.7.7 11.8-8 23.9-12.3 34.7-4 10-3.8 20.4 1 29.5-5.5-5-9.5-10.1-7.9-18.8.8-4 2.8-8.3 5-12.8 4.9-10.2 11.1-23 4.5-40.2-.4-1-.8-2-1.1-3 .5.3 1.2-.3.8-.9-3.6-7.2-4.6-15.2-2.5-23 2.3-8.3 9.1-16.8 18.7-13.8.8.2 1.1-1 .3-1.2-8.5-2.7-15.6 3.2-18.9 10.8C48.7 62.3 48 66.7 48 71c-1.6-9.4-1-16-.6-18.7C52.7 43.5 63 41 71.8 46.2c.7.4 1.3-.7.6-1.1-.7-.4-1.4-.8-2.2-1.1.3-.2.4-.8-.1-1-7.8-4.5-17-2.7-22.3 4.1v-.8c2-5.3 5.6-9.7 10.5-12.6 4.7-2.8 12.3-5.2 17.3-2 .3.5.7 1 1 1.5.2.4.7.4.9.1.5.6 1.4-.3.9-.9-.6-.7-1.3-1.3-2-1.8-4.8-6.4-13-8.6-20.4-5.6 3.2-3.2 6.3-4 6.5-4.1.2 0 .4-.2.5-.4l.1-.1c6.4.9 11.9 4.6 15.2 10.2.4.7 1.5.1 1.1-.6-3.3-5.7-8.9-9.5-15.3-10.6 2.6-3 5.2-5.3 7.8-7 7.4-2.5 14.9-.3 19.6 5-1.5.5-2.7 1-3.6 1.5-4.7 2.9-5.1 5.5-5.1 5.5H84l3.7-1.4 5.9-2.7c1 1.8 1.8 3.7 2.3 5.9.2.8 1.4.5 1.2-.3-.4-2.1-1.2-4-2.1-5.7h1.3c.7 1.9 1.2 4 1.2 6.2 0 .8 1.3.8 1.2 0 0-2.2-.4-4.2-1.1-6.1l3.8.1c0 .5-.1 1.1-.1 1.7-.1.8 1.1 1.1 1.2.3.1-.7.2-1.3.2-2h1L113 25c-2-5.6-6.3-7.9-10.9-8.6-.6-2.2-1.7-4.2-3.2-5.9h.6c.1.1.2.1.3.1 10.1.6 17.2 9.3 15.6 19.3-.1.8 1.1 1.1 1.2.3 1.3-8-2.5-15.2-9-18.7 4.2 1 7.2 2.8 9.2 5.2 3.1 4.1 2.1 8.8 2 9.1zm-5.3.5c0 .1.1.2.1.3 0-.1 0-.2-.1-.3zM113 25c.1.1.1.3.2.4-.1-.3-.2-.4-.2-.4zm1 2.6c0 .1.1.2.1.3 0-.1-.1-.2-.1-.3zm.8 2.2c.4 1.1.3.8 0 0zm-.7-1.9c.2.7.5 1.4.7 1.9-.1-.4-.4-1-.7-1.9zm-.9-2.5c.1.2.2.5.3.9l-.3-.9zm.4 1.2c.1.3.2.7.4 1-.1-.3-.2-.7-.4-1z" fill="#000000" stroke-width="none" opacity="1"></path></g></g><g id="svga-group-humanbody-back"><path id="SvgjsPath67584" d="M86.5 107c0 18.8 2.7 50.3-8.1 58s-31.8 13.9-36.7 24.4-3.6 29.4-3.6 29.4h124.1s.6-23.1-4.2-30.4c-6.6-10.1-28.5-17.7-36.5-22.9-8.1-5.2-10.9-32.2-10.9-58.8l-24.1.3z" fill="#ffffff" stroke-width="none" opacity="1"></path></g><g id="svga-group-chinshadow-single"></g><g id="svga-group-humanbody-front"><path id="SvgjsPath67585" d="M163.4 220.1H37.2l-.3-.9c-.1-.5-1.3-19.7 3.6-30.3 3.4-7.3 13.6-12.4 23.5-17.4 5.1-2.5 9.9-5 13.6-7.5 8.6-6 8.1-29.8 7.7-47.1-.1-3.5-.1-6.8-.1-9.8v-1.3l26.7-.4v1.3c0 32 3.8 53.5 10.3 57.7 2.4 1.6 6 3.3 10.2 5.4 9.7 4.7 21.9 10.6 26.7 18 5 7.6 4.4 30.9 4.4 31.2l-.1 1.1zm-124.1-2.6h121.6c-.1-2.4-.6-23.2-4-28.4-4.4-6.7-16.2-12.5-25.6-17-4.3-2.1-8-3.9-10.5-5.5-9.8-6.3-11.4-38.8-11.5-58.6l-21.5.4c0 2.6.1 5.5.1 8.5.4 18.9.9 42.4-8.8 49.3-3.8 2.7-8.7 5.1-13.9 7.7-9.5 4.8-19.4 9.7-22.3 16.1-3.3 6.9-3.7 25.9-3.6 27.5z" fill="#000000" stroke-width="none" opacity="1"></path><path id="SvgjsPath67586" d="M76.8 173.7c4.8 2.3 10.4 3.9 15.7 2.9.4-.1.4-.7 0-.8-5.1-.9-10.2-1.4-15.2-3.2-.6-.2-1.1.8-.5 1.1zm31.5 2.4c2.4.3 4.9-.4 7.1-1.2 2.1-.8 4.3-1.7 5.8-3.4.5-.5-.1-1.2-.7-.9-2.1.9-3.9 2.3-6.1 3-2 .7-4.1 1-6.2 1.5-.6.1-.4.9.1 1z" fill="#000000" stroke-width="none" opacity="1"></path></g><g id="svga-group-clothes-single"><path id="SvgjsPath67719" d="M59.18 219.21s6.83-27.86 12.06-33.68c.65-.73 23.06 19.29 27.59 23.07 0 0 18.19-17.57 25.66-24.01 0 0 8.59 18.76 14.25 34.62H59.18z" fill="#ffffff" stroke-width="none" opacity="1"></path><path id="SvgjsPath67720" d="M139.57 218.64c-4.3-12.43-12.69-32.09-14.26-34.06l4.01-15.95a.995.995 0 0 0-.73-1.21.987.987 0 0 0-1.21.73l-4.02 16.02c-7.56 6.98-21.24 20.84-24.49 23.26-2.88-1.85-9.44-8.18-15.56-13.54-6.24-5.47-9.81-8.84-11.3-9.24l-4.42-13.93a.999.999 0 0 0-1.26-.65c-.53.17-.82.73-.65 1.25l4.44 13.99c-5.19 6-11.55 32.93-11.82 33.45-.16.31-.15.68.03.98.18.3.51.48.86.48h79.57c.37 0 .71-.21.88-.53.17-.34.05-.7-.07-1.05zm-78.71-.43c.93-4.53 6.79-27.02 10.79-31.64 3.27 1.01 22.21 19.83 26.62 22.84.32.22.74.23 1.07.04.19-.11 16.99-16.34 24.63-23.35 1.81 2.27 8.06 18.15 12.87 32.1H60.86z" fill="#000000" stroke-width="none" opacity="1"></path></g><g id="svga-group-head" transform="matrix(1,0,0,1,0,0)"><g id="svga-group-ears-left-move" transform="matrix(1,0,0,1,0,0)"><g id="svga-group-ears-left"><path id="SvgjsPath67534" d="M64.7 84.7s-1.8-5-3.3-7.9-3.6-6.3-6.6-7.2-4 3.9-2.9 8.3 4.2 13.9 5 17.6 1.8 8.1 3.6 7.5 7.1-7.7 4.2-18.3z" fill="#ffffff" stroke-width="none" opacity="1"></path><path id="SvgjsPath67535" d="M59.1 103.6c-1.5-.8-2.3-3.8-3.2-8-.4-2.2-1.7-6.4-2.9-10.5-.8-2.7-1.6-5.3-2.1-7.1-.9-3.5-.5-7.1 1-8.6.8-.8 1.8-1 2.9-.7 3.3.9 5.5 4.4 7.2 7.6 1.6 2.9 3.3 7.8 3.4 8v.1c3.1 11.1-2.6 18.5-4.8 19.3-.2.1-.4.1-.6.1-.3.1-.6 0-.9-.2zm1.5-26.4c-1.6-2.9-3.4-6-6.1-6.7-.5-.1-.9 0-1.3.3-1.1 1.1-1.3 4-.6 6.9.5 1.8 1.2 4.3 2 7 1.2 4.1 2.5 8.4 3 10.6.8 4.1 1.6 6.4 2.3 6.8h.1c1.1-.4 6.6-6.8 3.8-17.2-.1-.4-1.8-5.1-3.2-7.7z" fill="#000000" stroke-width="none" opacity="1"></path><path id="SvgjsPath67536" d="M52.8 72.7c1.9-.8 3.6 1.4 4.8 3.3 1.6 2.5 2.6 5.5 2.9 8.6v.2c0 .2 0 .5.1.7 0 .2-.2.2-.2 0-.1-.4-.2-.9-.3-1.4 0 0-.1-.1-.1-.2-1.2-.6-1.8-.3-1.8.8 0 .7.2 1.5.3 2.2.3 1.2.9 2.3 1.3 3.5.1.2-.2.4-.3.2-.9-1.6-2.6-5.3-1.5-7.2.5-.9 1.3-.8 1.9-.2-.5-2-1.2-4.3-2.2-6.2-2.1 4.5-1 9.2.1 14.2 0 .2-.2.3-.3.1-1.4-4.6-2.7-10.7 0-14.5-1.2-2.2-2.8-3.9-4.7-3.8-.1.1-.2-.3 0-.3z" fill="#000000" stroke-width="none" opacity="1"></path></g></g><g id="svga-group-ears-right-move" transform="matrix(1,0,0,1,0,0)"><g id="svga-group-ears-right"><path id="SvgjsPath67537" d="M135.3 84.7s1.8-5 3.3-7.9 3.6-6.3 6.6-7.2 4 3.9 2.9 8.3-4.2 13.9-5 17.6c-.7 3.7-1.8 8.1-3.6 7.5s-7.1-7.7-4.2-18.3z" fill="#ffffff" stroke-width="none" opacity="1"></path><path id="SvgjsPath67538" d="M140 103.9c-.2 0-.4 0-.6-.1-2.2-.8-7.9-8.2-4.8-19.3v-.1c.1-.2 1.8-5.1 3.4-8 1.7-3.2 3.9-6.7 7.2-7.6 1.1-.3 2.2 0 2.9.7 1.5 1.5 1.9 5 1 8.6-.5 1.8-1.2 4.4-2.1 7.1-1.2 4.1-2.5 8.3-2.9 10.5-.8 4.2-1.7 7.2-3.2 8-.3.1-.6.2-.9.2zm-3.9-19c-2.9 10.4 2.6 16.8 3.8 17.2h.1c.7-.4 1.5-2.7 2.3-6.8.5-2.3 1.7-6.5 3-10.6.8-2.7 1.6-5.3 2-7 .8-2.9.5-5.9-.6-6.9-.3-.3-.8-.4-1.3-.3-2.7.7-4.6 3.9-6.1 6.7-1.3 2.6-3 7.3-3.2 7.7z" fill="#000000" stroke-width="none" opacity="1"></path><path id="SvgjsPath67539" d="M147.2 72.7c-1.9-.8-3.6 1.4-4.8 3.3-1.6 2.5-2.6 5.5-2.9 8.6v.2c0 .2 0 .5-.1.7 0 .2.2.2.2 0 .1-.4.2-.9.3-1.4.1-.1.1-.2.2-.3 1.2-.6 1.8-.3 1.8.8 0 .7-.2 1.5-.3 2.2-.3 1.2-.9 2.3-1.3 3.5-.1.2.2.4.3.2.9-1.6 2.6-5.3 1.5-7.2-.5-.9-1.3-.8-1.9-.2.5-2 1.2-4.3 2.2-6.2 2.1 4.5 1 9.2-.1 14.2 0 .2.2.3.3.1 1.4-4.6 2.7-10.7 0-14.5 1.2-2.2 2.8-3.9 4.7-3.8 0 .2.1-.2-.1-.2z" fill="#000000" stroke-width="none" opacity="1"></path></g></g><g id="svga-group-faceshape-wrap"><g id="svga-group-faceshape-single"><path id="SvgjsPath67568" d="M138.2 58.2c-2-10.8-13.3-27.4-37.2-27.4S69.1 43.5 65.5 53c-3 8.1-3 21.3-3 21.3s-.1 33.5 2.1 40.5 12.7 18.4 16.7 21.5c4 3.1 27.7 3.1 32.5 2.6 4.8-.4 21.1-17.1 22.4-22.4 1.3-5.3 3.2-42.3 3.2-42.3s.2-8.3-1.2-16z" fill="#ffffff" stroke-width="none" opacity="1"></path><path id="SvgjsPath67569" d="M105.9 140.5c-8.9 0-22.1-.5-25.4-3.1-4.1-3.2-14.9-14.9-17.1-22.2-2.2-7.1-2.2-39.5-2.2-40.9 0-.5 0-13.6 3.1-21.8 5.8-15.5 17.8-23 36.7-23 10.9 0 20.5 3.4 27.7 10 5.5 5 9.6 11.9 10.8 18.5 1.4 7.7 1.2 16 1.2 16.4-.1 1.5-1.9 37.2-3.2 42.6-1.4 5.5-18 22.9-23.5 23.4-1.1 0-4.2.1-8.1.1zM101 32.1c-17.7 0-28.9 7-34.3 21.3-2.9 7.8-2.9 20.8-2.9 20.9 0 .3-.1 33.4 2.1 40.1 2.1 6.7 12.4 17.9 16.3 20.9 3.3 2.5 25.5 2.9 31.6 2.4 1.5-.1 5.8-3 11.7-9 5.1-5.1 9-10.2 9.5-12.4 1-4.1 2.5-29.3 3.2-42 0-.1.2-8.4-1.2-15.8-1.1-6-4.8-12.4-10-17-6.7-6.2-15.7-9.4-26-9.4z" fill="#000000" stroke-width="none" opacity="1"></path></g></g><g id="svga-group-mouth-single-move" transform="matrix(1,0,0,1,0,0)"><g id="svga-group-mouth-single"><path id="SvgjsPath67524" d="M115.55 116.07c.18-.22-.08-.5-.28-.38-.11-.02-.24.02-.28.16-.02.06-.04.11-.06.16-2.25 2.41-5.13 2.38-8.06 1.18-1.75-.72-2.75-.81-4.41.16-1.52.89-2.64.71-4.26.25-.82-.23-1.58-.39-2.42-.19-2.78.69-4.07 4.88-7.37 3.7-.23-.08-.35.19-.25.36-.03.1-.01.21.09.28.79.59 1.66.91 2.55 1.06-.05.1-.04.24.08.32a16.452 16.452 0 0 0 22.95-4.33c.01-.01 0-.02 0-.02.68-.64 1.21-1.47 1.53-2.53.07-.05.14-.11.19-.18zm-21.66 3.06c2.17-1.87 3.47-.92 5.85-.56.75.11 1.36.04 2.05-.26.57-.25 1.05-.69 1.63-.93 1.66-.67 2.46-.03 3.82.53.94.39 1.85.69 2.87.71 1.65.03 3.19-.55 4.43-1.56-.3.6-.68 1.1-1.12 1.5-2.76 2.54-7.99 1.69-11.5 1.81-4.06.13-8.82 3.46-12.67 1.43 1.89.16 3.19-1.42 4.64-2.67zm-2.45 3.79c1.08.08 2.2-.08 3.3-.36 1.28-.33 2.5-.84 3.78-1.18 1.85-.5 3.71-.54 5.61-.48 2.69.09 6.01.12 8.42-1.17-5.17 6.28-14.19 7.69-21.11 3.19z" fill="#000000" stroke-width="none" opacity="1"></path></g></g><g id="svga-group-eyes-left-move" transform="matrix(1,0,0,1,0,0)"><g id="svga-group-eyes-left"><g id="svga-group-eyesback-left"></g><g id="svga-group-eyesiriswrapper-left"><g id="svga-group-eyesiriscontrol-left" transform="matrix(1,0,0,1,0,0)"><g id="svga-group-eyesiris-left"><path id="SvgjsPath67601" d="M84.8 84.7c-1-1.9-3.2-2.7-5.2-2-2.2.8-3.8 3-3.1 5.4.4 1.2 1.5 2.4 2.8 2.7.4.1.9.1 1.4.1.5.1 1.1 0 1.7-.2 2.4-.9 3.6-3.7 2.4-6z" fill="#ffffff" stroke-width="none" opacity="1"></path><path id="SvgjsPath67602" d="M81.1 91.2h-.4c-.5 0-1 0-1.5-.1-1.3-.3-2.5-1.4-3-2.9-.9-2.6 1-4.9 3.2-5.7 2.2-.8 4.6.1 5.6 2.1.6 1.2.7 2.6.2 3.8-.5 1.2-1.5 2.2-2.7 2.6-.4.1-.9.2-1.4.2zm-.3-.6c.5.1 1.1 0 1.6-.2 1.1-.4 1.9-1.2 2.4-2.3.4-1.1.4-2.3-.2-3.3-.9-1.7-3-2.5-4.9-1.8-2 .7-3.6 2.8-2.9 5 .4 1.2 1.5 2.3 2.6 2.5.4.1.9.1 1.4.1zm2.4-4.8c0-.1 0-.1-.1-.1-.6-1.1-2-1.5-3.1-1 .2.2.4.5.6.7.2.3.5 1 .1 1.2-.4.2-1 0-1.3-.2-.2-.1-.3-.3-.5-.5 0 .1-.1.1-.1.2-.1.2-.1.4-.1.6-.2.7 0 1.4.5 1.9.2.2.5.3.8.4.6.3 1.2.4 1.8.1-.1-.1-.2-.2-.2-.4 0-.3.2-.6.5-.7.3-.1.6 0 .7.2.3-.3.5-.7.6-1.1.1-.4 0-.9-.2-1.3zm-4.8 1.1c-.4-.1-.9-.1-1.3-.2-.1 0-.1.1 0 .1.4.1.9.3 1.3.2.1 0 .1-.1 0-.1zm-.1.8c-.2 0-.4.1-.6.1-.2 0-.5.1-.7.1-.1 0-.1.1 0 .1.4 0 1 0 1.3-.3.1.1.1 0 0 0zm.4.8c-.2.1-.3.2-.5.3-.2.1-.4.2-.5.3-.1 0 0 .2.1.1.3 0 .7-.3.9-.7.1.1.1 0 0 0zm.9.7c-.3.3-.4.6-.6.9-.1.1.1.2.1.1.2-.3.5-.6.6-1h-.1zm.8.4c-.1.3-.1.7-.2 1.1 0 .1.1.1.1 0 0-.4.1-.7.1-1.1.1-.1 0-.1 0 0zm1.4.4c-.1-.1-.1-.3-.2-.4 0 0-.1 0-.1.1 0 .2.1.3.2.4.1.2.1.3.2.5 0 .1.1 0 .1 0-.1-.2-.1-.4-.2-.6zm1.3-.2-.3-.3-.3-.3c0-.1-.1 0-.1.1.1.1.2.2.3.4.1 0 .2.2.4.1 0 .1 0 .1 0 0zm.9-.7c-.1-.1-.3-.2-.5-.3-.2-.1-.3-.2-.5-.3-.1 0-.2.1-.1.1.2.1.3.2.5.3.2.1.3.2.5.2.1.1.2.1.1 0zm.5-1.3c-.1-.1-.3-.1-.4-.1-.2 0-.3-.1-.5-.1-.1 0-.1.1-.1.1.3.1.7.3 1 .2.1.1.1 0 0-.1zm.2-1.7c-.3.1-.8.3-1 .5-.1.1 0 .1.1.1.2-.1.3-.2.5-.2.2-.1.3-.1.5-.2.1-.1 0-.2-.1-.2zm-.8-2-.1-.1s-.1 0-.1.1c0 0-.4.4-.4.5-.1.2-.2.3-.4.5-.1.1.1.1.1.1l.9-.9c.1-.1.1-.1 0-.2zm-1.9-.8c-.1.1-.1.3-.2.5s-.1.4-.2.6c0 .1.1.1.1 0 .1-.2.2-.3.2-.5.1-.2.2-.4.1-.5.2-.1.1-.1 0-.1zm-1.3.8c-.1-.2-.1-.3-.2-.5 0-.2-.1-.3-.1-.4 0-.1-.1 0-.1 0 0 .3.2.7.3 1 0 .1.2 0 .1-.1zm-1.2 0c-.1-.2-.2-.3-.3-.5 0-.1-.1 0-.1 0 .1.2.1.3.2.5.1.1.2.3.3.4.1 0 .1 0 .1-.1 0 0-.1-.2-.2-.3zm-.6.9-.3-.3c-.1-.1-.2-.2-.4-.3-.1-.1-.2 0-.1.1l.3.3c.2.1.3.3.5.2 0 .2 0 .1 0 0zm-.8.8-.9-.3c-.1 0-.1.1 0 .1.3.1.6.3.9.3 0 0 .1-.1 0-.1z" fill="#000000" stroke-width="none" opacity="1"></path></g></g></g><g id="svga-group-eyesfront-left"><path id="SvgjsPath67651" d="M81 74.4c-6.9 0-12.5 5.6-12.5 12.5S74.1 99.4 81 99.4s12.5-5.6 12.5-12.5S87.9 74.4 81 74.4zm1.8 17.3c-4.1 1.3-7.8.9-9.3.1S71.2 88 71.2 88c3.2-2.5 9-4.7 12.3-5.3 3.4-.6 4.4 1.3 4.9 2.1.6.8 1.2 4.7 1.2 4.8.1 0-2.7.8-6.8 2.1z" fill="#ffffff" stroke-width="none" opacity="1"></path><path id="SvgjsPath67652" d="M91.8 83.7c-.1-.3-.5-.3-.5 0-.3 1.3-.3 2.7-.7 4-.1.5-.3 1-.6 1.5-.1-1.3-.5-3.3-1.4-4.6-.1-.2-.2-.3-.3-.5l2.2-1.5c.2-.1.3-.4.1-.6-.1-.2-.4-.3-.6-.1l-2.2 1.5c-.3-.4-.7-.7-1.1-.9l1.3-1.9c.1-.2.1-.5-.1-.6s-.5-.1-.6.1l-1.4 2.2c-.4 0-.8-.1-1.3 0h-.5c.1-.5.1-1.2.2-1.8 0-.3-.1-.5-.4-.5s-.5.1-.5.4c-.1.4-.2 1.5-.3 2.1-.7.1-1.7.3-2.8.6l-.2-1.4c0-.3-.3-.4-.5-.4-.3 0-.4.3-.4.5l.2 1.6c-1.1.4-2.4.9-3.8 1.6l-.9-1.7c-.1-.2-.4-.3-.6-.2-.2.1-.3.4-.2.6l.9 1.7c-.6.3-1.1.6-1.7 1l-.7-.7c-.2-.2-.5-.2-.7 0s-.2.5 0 .7l.6.6c-.8.6-1.7 1.2-2.5 1.9-.2.2-.2.4-.1.6.2.2.4.2.6.1.2-.2.4-.3.6-.5 0 .2.2.6.4 1.1l-2.4.8c-.2.1-.3.4-.2.6.1.2.2.3.4.3h.2l2.5-1.1c.1.2.3.4.5.6l-2 1.3c-.2.1-.3.4-.1.6.1.1.2.2.4.2.1 0 .2 0 .3-.1L73 92c.3.2.6.4 1 .6l-1.4 1.6c-.2.2-.2.5 0 .7.1.1.2.1.3.1.1 0 .3-.1.3-.2l1.6-1.8c.5.1 1 .2 1.6.2h.4c3.9 0 9.8-2 11.7-2.7.3-.1.5-.2.6-.2 0 .2.1.3.2.4-.1.3-.2.5-.3.8-.1.3.3.4.5.3 1.8-1.8 2.9-5.7 2.3-8.1zm-2.6 5.6c-.1 0-.1 0-.8.2-2 .7-8.1 2.8-11.8 2.7-4.1-.2-4.7-3.6-4.7-3.7s-.1-.2-.1-.3C78.5 83.3 84 83 84.7 83c1.8-.1 2.1.1 3.4 2 .6 1.3 1 3.2 1.1 4.3 0 .1 0 0 0 0z" fill="#000000" stroke-width="none" opacity="1"></path></g></g></g><g id="svga-group-eyes-right-move" transform="matrix(1,0,0,1,0,0)"><g id="svga-group-eyes-right"><g id="svga-group-eyesback-right"></g><g id="svga-group-eyesiriswrapper-right"><g id="svga-group-eyesiriscontrol-right" transform="matrix(1,0,0,1,0,0)"><g id="svga-group-eyesiris-right"><path id="SvgjsPath67603" d="M123.2 84.7c-1-1.9-3.2-2.7-5.2-2-2.2.8-3.8 3-3.1 5.4.4 1.2 1.5 2.4 2.8 2.7.4.1.9.1 1.4.1.5.1 1.1 0 1.7-.2 2.5-.9 3.6-3.7 2.4-6z" fill="#ffffff" stroke-width="none" opacity="1"></path><path id="SvgjsPath67604" d="M119.6 91.2h-.4c-.5 0-1 0-1.5-.1-1.3-.3-2.5-1.4-3-2.9-.9-2.6 1-4.9 3.2-5.7 2.2-.8 4.6.1 5.6 2.1.6 1.2.7 2.6.2 3.8-.5 1.2-1.5 2.2-2.7 2.6-.5.1-.9.2-1.4.2zm-.4-.6c.5.1 1.1 0 1.6-.2 1.1-.4 1.9-1.2 2.4-2.3.4-1.1.4-2.3-.2-3.3-.9-1.7-3-2.5-4.9-1.8-2 .7-3.6 2.8-2.9 5 .4 1.2 1.5 2.3 2.6 2.5.5.1 1 .1 1.4.1zm2.4-4.8c0-.1 0-.1-.1-.1-.6-1.1-2-1.5-3.1-1 .2.2.4.5.6.7.2.3.5 1 .1 1.2-.4.2-1 0-1.3-.2-.2-.1-.3-.3-.5-.5 0 .1-.1.1-.1.2-.1.2-.1.4-.1.6-.2.7 0 1.4.5 1.9.2.2.5.3.8.4.6.3 1.2.4 1.8.1-.1-.1-.2-.2-.2-.4 0-.3.2-.6.5-.7.3-.1.6 0 .7.2.3-.3.5-.7.6-1.1.2-.4.1-.9-.2-1.3zm-4.7 1.1c-.4-.1-.9-.1-1.3-.2-.1 0-.1.1 0 .1.4.1.9.3 1.3.2v-.1zm-.1.8c-.2 0-.4.1-.6.1-.2 0-.5.1-.7.1-.1 0-.1.1 0 .1.4 0 1 0 1.3-.3.1.1 0 0 0 0zm.4.8c-.2.1-.3.2-.5.3-.2.1-.4.2-.5.3-.1 0 0 .2.1.1.3 0 .7-.3.9-.7.1.1 0 0 0 0zm.8.7c-.3.3-.4.6-.6.9-.1.1.1.2.1.1.2-.3.5-.6.6-1h-.1zm.9.4c-.1.3-.1.7-.2 1.1 0 .1.1.1.1 0 0-.4.1-.7.1-1.1.1-.1 0-.1 0 0zm1.4.4c-.1-.1-.1-.3-.2-.4 0 0-.1 0-.1.1 0 .2.1.3.2.4.1.2.1.3.2.5 0 .1.1 0 .1 0-.1-.2-.1-.4-.2-.6zm1.2-.2-.3-.3-.3-.3c0-.1-.1 0-.1.1.1.1.2.2.3.4.1 0 .2.2.4.1 0 .1.1.1 0 0zm1-.7c-.1-.1-.3-.2-.5-.3-.2-.1-.3-.2-.5-.3-.1 0-.2.1-.1.1.2.1.3.2.5.3.2.1.3.2.5.2.1.1.1.1.1 0zm.5-1.3c-.1-.1-.3-.1-.4-.1-.2 0-.3-.1-.5-.1-.1 0-.1.1-.1.1.3.1.7.3 1 .2v-.1zm.2-1.7c-.3.1-.8.3-1 .5-.1.1 0 .1.1.1.2-.1.3-.2.5-.2.2-.1.3-.1.5-.2.1-.1 0-.2-.1-.2zm-.8-2-.1-.1s-.1 0-.1.1c0 0-.4.4-.4.5-.1.2-.2.3-.4.5-.1.1.1.1.1.1l.9-.9v-.2zm-1.9-.8c-.1.1-.1.3-.2.5s-.1.4-.2.6c0 .1.1.1.1 0 .1-.2.2-.3.2-.5.1-.2.2-.4.1-.5.1-.1 0-.1 0-.1zm-1.3.8c-.1-.2-.1-.3-.2-.5 0-.2-.1-.3-.1-.4 0-.1-.1 0-.1 0 0 .3.2.7.3 1 0 .1.1 0 .1-.1zm-1.2 0c-.1-.2-.2-.3-.3-.5 0-.1-.1 0-.1 0 .1.2.1.3.2.5.1.1.2.3.3.4.1 0 .1 0 .1-.1 0 0-.1-.2-.2-.3zm-.6.9-.3-.3c-.1-.1-.2-.2-.4-.3-.1-.1-.2 0-.1.1l.3.3c.2.1.3.3.5.2 0 .2 0 .1 0 0zm-.8.8-.9-.3c-.1 0-.1.1 0 .1.3.1.6.3.9.3v-.1z" fill="#000000" stroke-width="none" opacity="1"></path></g></g></g><g id="svga-group-eyesfront-right"><path id="SvgjsPath67653" d="M119 74.4c-6.9 0-12.5 5.6-12.5 12.5s5.6 12.5 12.5 12.5 12.5-5.6 12.5-12.5-5.6-12.5-12.5-12.5zm7.8 17.5c-1.5.8-5.2 1.2-9.3-.1-4.1-1.3-6.9-2.1-6.9-2.1 0-.1.6-4 1.2-4.8s1.6-2.6 4.9-2.1c3.4.6 9.1 2.8 12.3 5.3.1 0-.7 3-2.2 3.8z" fill="#ffffff" stroke-width="none" opacity="1"></path><path id="SvgjsPath67656" d="m131.5 91-2.4-1.1c.2-.5.3-.9.4-1.1.2.2.4.3.6.5.2.2.5.1.6-.1.2-.2.1-.5-.1-.6-.9-.7-1.7-1.3-2.5-1.9l.6-.6c.2-.2.2-.5 0-.7s-.5-.2-.7 0l-.7.7c-.6-.4-1.2-.7-1.7-1l.9-1.7c.1-.2 0-.5-.2-.6s-.5 0-.6.2l-.9 1.7c-1.4-.7-2.7-1.2-3.8-1.6l.2-1.6c0-.3-.1-.5-.4-.5s-.5.1-.5.4l-.2 1.4c-1.1-.3-2.1-.5-2.8-.6-.1-.6-.2-1.7-.3-2.1 0-.3-.3-.4-.5-.4-.3 0-.4.3-.4.5.1.7.2 1.4.2 1.8h-1.8l-1.4-2.2c-.1-.2-.4-.3-.6-.1-.2.1-.3.4-.1.6l1.3 1.9c-.4.2-.7.5-1.1.9l-2.2-1.5c-.2-.1-.5-.1-.6.1s-.1.5.1.6L112 84c-.1.2-.2.3-.3.5-1.3 2.1-1.6 5.5-1.4 5.9.1.2.2.3.4.3h.1c.2-.1.3-.3.3-.5.1 0 .3.1.6.2 2 .7 7.8 2.7 11.7 2.7h.4c.6 0 1.2-.1 1.6-.2l1.6 1.8c.1.1.2.2.3.2.1 0 .2 0 .3-.1.2-.2.2-.5 0-.7l-1.4-1.6c.4-.2.7-.4 1-.6l2.2 1.4c.1.1.2.1.3.1.2 0 .3-.1.4-.2.1-.2.1-.5-.1-.6l-2-1.3c.2-.2.3-.4.5-.6l2.5 1.1h.2c.2 0 .3-.1.4-.3.2-.2.1-.4-.1-.5zm-7.7 1.3c-3.7.1-9.8-2-11.8-2.7-.6-.2-.7-.2-.8-.2.1-1.1.5-3 1.3-4.3 1.2-1.9 1.6-2 3.4-2 .6 0 6.1.3 12.9 5.2-.1.1-.1.1-.1.3-.2.1-.8 3.5-4.9 3.7z" fill="#000000" stroke-width="none" opacity="1"></path></g></g></g><g id="svga-group-facehighlight-single"></g><g id="svga-group-eyebrows-left-move" transform="matrix(1,0,0,1,0,0)"><g id="svga-group-eyebrows-left-rotate" transform="matrix(1,1.7453292519943295e-9,-1.7453292519943295e-9,1,1.2837425344969233e-7,-1.3892248773572646e-7)"><g id="svga-group-eyebrows-left"><path id="SvgjsPath67697" d="M79.33 76.19c4.88.09 10.13.99 11.3.09 1.18-.9.9-4.61 0-5.15s-6.96-1.36-13.74.54-9.49 3.98-9.04 4.52c.45.54 6.42-.09 11.48 0z" fill="#ffffff" stroke-width="none" opacity="1"></path><path id="SvgjsPath67698" d="M67.49 76.48c.37.45 1.38.45 5.51.29 1.98-.08 4.22-.16 6.32-.13 1.67.03 3.42.16 4.96.27.94.07 1.76.13 2.5.16.02.01.04.02.07.02.02 0 .04-.01.06-.01.52.03 1.01.04 1.43.04 1.25 0 2.09-.13 2.56-.49 1.01-.78.98-2.72.95-3.3-.03-.49-.18-2.13-1-2.62-1.17-.7-7.39-1.39-14.1.49-5.99 1.68-9.07 3.56-9.39 4.59-.06.27-.02.51.13.69zm8.6-.74-3.3-2.24c.5-.19 1.05-.39 1.65-.6l2.68 2.82c-.35.01-.69.02-1.03.02zm10.01-.96-2.07-3.8c.44-.02.87-.03 1.28-.04.11.62.46 2.3.79 3.84zm-2.82.42-2.09-3.95c.7-.1 1.38-.17 2.03-.22l.06 4.17zm-.33.7c-.76-.05-1.54-.1-2.32-.13-.44-.91-1.58-3.16-2.03-4.05.66-.15 1.31-.28 1.94-.38l2.41 4.56zm5.89-1.82-.72-3.03c.26.03.5.06.72.09v2.94zm1.51 1.83c-.17.13-.48.21-.89.25v-4.91c.47.09.8.19.94.27.18.11.48.78.55 1.88.06 1.16-.19 2.19-.6 2.51zm-3.32.26c-.42-1.94-.94-4.41-1.1-5.23.55.01 1.07.03 1.54.06l1.23 5.2c-.49.02-1.05 0-1.67-.03zm-3.13-.2-.06-4.03 2.29 4.19-1.78-.12c-.14-.02-.3-.03-.45-.04zm-6.04-.25c-.01-.06-.02-.12-.06-.16l-2.72-2.86c.6-.19 1.24-.39 1.93-.58.32-.09.64-.17.96-.25.52 1.02 1.47 2.9 1.95 3.88-.2-.01-.4-.01-.59-.02-.48-.02-.97-.02-1.47-.01zm-9.47.17c.36-.41 1.5-1.19 3.71-2.12l2.94 2c-.71.02-1.41.05-2.07.07-1.81.08-3.84.16-4.58.05z" fill="#000000" stroke-width="none" opacity="1"></path></g></g></g><g id="svga-group-eyebrows-right-move" transform="matrix(1,0,0,1,0,0)"><g id="svga-group-eyebrows-right-rotate" transform="matrix(1,1.7453292519943295e-9,-1.7453292519943295e-9,1,1.2840602892083552e-7,-2.101197082993167e-7)"><g id="svga-group-eyebrows-right"><path id="SvgjsPath67699" d="M120.67 76.19c-4.88.09-10.13.99-11.3.09-1.18-.9-.9-4.61 0-5.15s6.96-1.36 13.74.54 9.49 3.98 9.04 4.52c-.45.54-6.42-.09-11.48 0z" fill="#ffffff" stroke-width="none" opacity="1"></path><path id="SvgjsPath67700" d="M132.62 75.81c-.32-1.03-3.4-2.91-9.39-4.59-6.71-1.88-12.93-1.2-14.1-.49-.81.49-.97 2.13-1 2.62-.03.58-.06 2.52.95 3.3.47.36 1.31.49 2.56.49.43 0 .91-.02 1.43-.04.02 0 .04.01.06.01.02 0 .04-.01.07-.02.74-.04 1.56-.1 2.5-.16 1.55-.11 3.3-.24 4.96-.27 2.1-.04 4.34.05 6.32.13 4.13.16 5.14.15 5.51-.29.17-.2.21-.44.13-.69zm-9.74-.08 2.68-2.82c.6.2 1.15.4 1.65.6l-3.3 2.24c-.34-.01-.68-.02-1.03-.02zm-8.19-4.79c.41 0 .84.02 1.28.04l-2.07 3.8c.33-1.54.68-3.22.79-3.84zm2.09.09c.65.05 1.33.12 2.03.22l-2.09 3.95.06-4.17zm2.68.31c.63.1 1.28.23 1.94.38-.45.89-1.59 3.14-2.03 4.05-.78.03-1.56.08-2.32.13l2.41-4.56zm-8.3-.19c.22-.03.46-.06.72-.09l-.72 3.03v-2.94zm-2.1 2.25c.06-1.1.36-1.77.55-1.88.14-.08.46-.18.94-.27v4.91c-.41-.05-.73-.12-.89-.25-.42-.32-.67-1.35-.6-2.51zm2.23 2.8 1.23-5.2c.47-.03.99-.05 1.54-.06-.15.82-.68 3.29-1.1 5.23-.61.03-1.17.05-1.67.03zm4.36-.2c-.6.04-1.2.09-1.78.12l2.29-4.19-.06 4.03c-.15.02-.31.03-.45.04zm5.01-.28c-.2 0-.4.01-.59.02.48-.98 1.44-2.86 1.95-3.88.32.08.64.16.96.25.69.19 1.34.39 1.93.58l-2.72 2.86c-.04.05-.05.11-.06.16-.49 0-.98 0-1.47.01zm6.37.13c-.66-.03-1.36-.05-2.07-.07l2.94-2c2.21.92 3.35 1.71 3.71 2.12-.74.1-2.77.02-4.58-.05z" fill="#000000" stroke-width="none" opacity="1"></path></g></g></g><g id="svga-group-nose-single-move" transform="matrix(1,0,0,1,0,0)"><g id="svga-group-nose-single"><path id="SvgjsPath67681" d="M106.1 105.1c-1-7.1-2.1-14.4-5.1-20.7-.7-1.4-1.9-3-3.4-1.7-.9.9-1.4 2.4-1.8 3.7-.9 3-1.4 6.2-1.9 9.3-.6 3.5-1 7.1-.9 10.7 0 1.4 0 3.1.6 4.4.4.8 1.2 1.5 2 1 .3-.2.4-.5.6-.7.9-1.1 1.5.1 2.1.8.6.7 1.3 1.1 2.1.5.8-.7 1-2.5 2.2-1.7.8.5 1.3 1.5 2.3 1.2 2.5-.8 1.5-5 1.2-6.8zm-.8 5.4c-.7.7-1.2.1-1.8-.4-.5-.4-.9-.8-1.5-.8-.6.1-1 .6-1.3 1.2-.3.5-.4.9-1 .9-.8 0-1-.9-1.6-1.4-.4-.5-1-.8-1.6-.5-.3.1-.4.4-.6.6-.3.4-.5 1.1-1.3.5-.3-.2-.5-1.1-.5-1.5-.9-5.8.3-12.2 1.4-17.9.4-2.2 1-4.7 1.8-6.5.2-.5.5-1 .9-1.4 1-1 1.8.5 2.3 1.4 2.2 4.7 3.3 9.9 4.2 15.1.4 2.7.9 5.4 1.2 8.1-.1.9 0 2-.6 2.6z" fill="#000000" stroke-width="none" opacity="1"></path></g></g><g id="svga-group-hair-front"><path id="SvgjsPath67778" d="M64.1 82.8S68 57 76.2 53c0 0 6.1-.2 11.4-2 0 0 12.3 5.9 28.4-.2 0 0 6.8 3.9 12.9 3.3 0 0 6.1 5.7 10 27.6 0 0 4.1-9.6 2-21.7-2-12.1-8.2-17.4-8.2-17.4s-1.6-10.2-8.2-13.9-10.6-2-10.6-2-1.8-3.5-7.8-5.5-16.1-2-20.4 2.9c0 0-10-1.4-16.2 13.9 0 0-8.4 9.2-9 25.8-.4 13.1 3.6 19 3.6 19z" fill="#ffffff" stroke-width="none" opacity="1"></path><path id="SvgjsPath67779" d="M141.9 59.7c-1.9-11-7-16.5-8.2-17.7-.4-1.9-2.4-10.8-8.6-14.3-5.3-3-9.1-2.7-10.7-2.3-.9-1.2-3.2-3.7-7.9-5.3-5.8-2-16.3-2-21.2 3-2.3-.1-11 .5-16.6 14.4-1.1 1.3-8.5 10.4-9.1 26.3-.5 13.2 3.5 19.4 3.6 19.6.2.3.5.4.8.4h.2c.4-.1.7-.4.8-.8 1.1-7 5.1-25.6 11.3-29 1.2-.1 6.4-.4 11.1-2 1.1.5 4.1 1.6 8.6 2.2.2.1.3.1.5 0 2.3.3 5 .4 7.9.1 3.5-.3 7.3-1 11.4-2.6 1.6.8 7.2 3.5 12.6 3.2 1.2 1.4 6.1 8.1 9.4 26.7.1.4.4.8.9.8s.9-.2 1-.6c.3-.2 4.3-9.9 2.2-22.1zm-6.7 3.9c1.5-4.1 2.1-8.3 2.1-12.5.7 1.7 1.4 3.6 2 5.8-.1 4.1-.8 8.1-2.3 11.9-.6-2-1.2-3.7-1.8-5.2zm-3.3-7.2c2-2.8 3.1-6 3.3-9.3.2.4.5.8.8 1.2.5 4.6 0 9.1-1.3 13.5-1.1-2.3-2.1-4.1-2.8-5.4zM126 30.9c2.5 7.7.4 15.4-5.8 20.6-.2-.1-.3-.1-.5-.2 3-3.2 2.4-9.4 2-13.3-.4-4-1.2-8.4-4.3-10.8 1.7.1 4 .7 6.7 2.2.7.5 1.3.9 1.9 1.5zm-9.4 19c2.7-7.5 2.2-15.4-1.4-22.4 4.6 1.9 5.2 8.1 5.4 12.3.2 3.2.6 8.6-2.1 11-1.1-.5-1.8-.8-1.9-.9zM113.1 27c.1.3.4.4.7.5 3.8 7 4.3 14.9 1.5 22.4-1.3.5-2.5.9-3.8 1.2 2.8-9.7 1.3-20-4-28.5 4.1 1.9 5.6 4.4 5.6 4.4zm-7.4 25.2c3.3-10.4 2.2-21.4-2.9-31 1 .2 1.9.4 2.7.6 6.1 8.8 7.8 19.4 4.6 29.6-1.6.4-3 .6-4.4.8zm-9.5-.1c-6-9.6-6.3-21.1-.8-31.1.6-.1 1.2-.1 1.8-.1-.6 10.6-.1 21.1 1.4 31.5-.8-.1-1.7-.2-2.4-.3zm-7.6-1.8c-7.3-7.1-8.1-17.7-1.9-25.7 1.7-1.8 4.3-2.8 7.1-3.3-5.1 9.9-4.8 21.1.7 30.7-2.8-.6-4.9-1.4-5.9-1.7zm-7.1 1.1c-5.4-7.8-8.1-18.5-.4-25.5 1.6-.6 2.9-.8 3.7-.8-5.2 8-4.5 17.9 1.9 25-1.7.6-3.5 1-5.2 1.3zm-3.7-23.6c-4.8 7.1-2.6 16.5 2.3 23.8-1.4.2-2.7.3-3.4.3-4-3.7-6.1-8.7-6-14.1 2.2-5.1 4.8-8.2 7.1-10zM68.5 62c-2.3-5.2-3.1-10.8-2.4-16.5.3-.7.7-1.4 1-2 .1 4.5 1.6 8.8 4.6 12.4-1.2 1.7-2.3 3.8-3.2 6.1zm-1.9 5.5c-1.9-5.2-2.8-10.5-2.9-16l.9-2.7c-.1 5.1 1 10.1 3.3 14.8-.5 1.3-1 2.6-1.3 3.9zm-3 12c-1-2.9-2.3-8-2-15.7.1-3 .5-5.8 1-8.3.4 4.8 1.5 9.4 3.4 13.9-1.1 3.9-1.9 7.6-2.4 10.1zm8.8-24.6c-3.1-3.9-4.5-8.7-4-13.6.4-.7.8-1.2 1.2-1.7.4 4.8 2.4 9.2 5.8 12.6-1.1.6-2.1 1.5-3 2.7zm27.5-2.5c-1.6-10.5-2.1-21-1.4-31.6.9 0 1.8.1 2.7.2 5.5 9.6 6.6 20.8 3.2 31.3-1.6.2-3.1.2-4.5.1zm21.6-.4c5.6-4.9 7.8-11.9 6.4-19 1.9 2.7 3 5.9 3.5 7.9.1 4.3-.1 8.9-3.2 12.1-2.3.1-4.7-.4-6.7-1zm8.1 1.3c2.2-2.7 2.9-6.1 3-9.5.3.3.7.8 1.2 1.5.2 3.6-.7 7-2.7 10-.8-1.3-1.4-1.9-1.5-2zm9.5 24.2c-.5-2.5-1.1-4.8-1.6-6.8 1.3-3 2.2-6.1 2.7-9.2.9 6.6-.1 12.5-1.1 16z" fill="#000000" stroke-width="none" opacity="1"></path></g><g id="svga-group-glasses-single-move" transform="matrix(1,0,0,1,0,0)"><g id="svga-group-glasses-single"><path id="SvgjsPath67729" d="M69.88 81.41c-1.26 2-1.19 6.21.52 11.64 1.71 5.43 5.9 6.83 8.07 6.98 2.17.16 8.12.05 11.59-2.28 3.47-2.33 5.17-5.95 5.9-10.71s-3.93-6.57-5.17-6.93c-1.24-.36-6.98-1.34-10.91-1.4s-8.5.32-10 2.7z" fill="url(#SvgjsLinearGradient67730)" opacity="1"></path><path id="SvgjsPath67733" d="M129.63 81.41c1.26 2 1.19 6.21-.52 11.64-1.71 5.43-5.9 6.83-8.07 6.98-2.17.16-8.12.05-11.59-2.28-3.47-2.33-5.17-5.95-5.9-10.71-.72-4.76 3.93-6.57 5.17-6.93 1.24-.36 6.98-1.34 10.91-1.4 3.94-.04 8.5.32 10 2.7z" fill="url(#SvgjsLinearGradient67734)" opacity="1"></path><path id="SvgjsPath67737" d="M133.87 79.09c-.39-.26-1.64 0-3.93-.59s-9.31-1.25-13.11-.72c-3.8.52-9.7 1.84-11.87 2.29-2.16.46-4.79.62-4.79.62h-.83s-2.62-.16-4.79-.62c-2.16-.46-8.06-1.77-11.87-2.29-3.8-.52-10.82.13-13.11.72-2.29.59-3.54.33-3.93.59-.39.26-.72 4.79.13 5.25.85.46 1.38 1.11 1.9 3.74s1.77 6.82 2.88 8.2c1.11 1.38 2.49 3.67 8.39 4.52 5.9.85 11.07-1.22 14.22-4.5 3.15-3.28 3.64-6.61 4.36-9.81.53-2.35 1.81-2.53 1.81-2.53h.83s1.27.18 1.81 2.53c.73 3.2 1.22 6.53 4.36 9.81 3.15 3.28 8.32 5.35 14.22 4.5 5.9-.85 7.28-3.15 8.39-4.52 1.11-1.38 2.36-5.57 2.88-8.2.52-2.62 1.05-3.28 1.9-3.74.87-.47.54-4.99.15-5.25zM94.26 90.96c-1.97 4.97-5.25 6.75-7.78 7.59-2.53.84-7.31.66-9.18.28-1.87-.37-4.4-1.12-6.09-5.25s-1.97-10.31.37-12.37c2.34-2.06 8.53-1.5 12.18-1.31 0 0 4.15.31 7.43 1.34 3.28 1.04 5.03 4.76 3.07 9.72zm34.04 2.63c-1.69 4.12-4.22 4.87-6.09 5.25-1.87.37-6.65.56-9.18-.28-2.53-.84-5.81-2.62-7.78-7.59-1.97-4.97-.22-8.68 3.06-9.71 3.28-1.03 7.43-1.34 7.43-1.34 3.65-.19 9.84-.75 12.18 1.31 2.34 2.05 2.06 8.24.38 12.36z" fill="#000000" stroke-width="none" opacity="1"></path></g></g></g></g></g><rect id="svga-credit-rect" width="200" height="15" x="0" y="185" fill="#ecf0f1" opacity="0.5" style="display: none;"></rect><text id="svga-credit-text" font-family="Avenir Next, Roboto, Helvetica, Arial, sans-serif" font-size="10px" text-anchor="start" font-weight="400" size="10px" anchor="start" weight="400" fill="#333333" x="33.43669891357422" y="182.60824704170227" style="display: none;"><tspan id="SvgjsTspan67518" dy="13" x="33.43669891357422">Created on AvatarMaker.com</tspan></text></g><defs id="SvgjsDefs67470"><linearGradient id="SvgjsLinearGradient67730" x1="82.5167" y1="78.7186" x2="82.5167" y2="100.0816" gradientUnits="userSpaceOnUse" class="svga-on-canvas-glasses-gradient-single-0-null"><stop id="SvgjsStop67731" stop-opacity="1" stop-color="#ffffff" offset="0.0708" ></stop><stop id="SvgjsStop67732" stop-opacity="0" stop-color="#ffffff" offset="1" ></stop></linearGradient><linearGradient id="SvgjsLinearGradient67734" x1="41.5167" y1="78.7186" x2="41.5167" y2="100.0816" gradientTransform="matrix(-1 0 0 1 158.5026 0)" gradientUnits="userSpaceOnUse" class="svga-on-canvas-glasses-gradient-single-1-null"><stop id="SvgjsStop67735" stop-opacity="1" stop-color="#ffffff" offset="0.0708" ></stop><stop id="SvgjsStop67736" stop-opacity="0" stop-color="#ffffff" offset="1" ></stop></linearGradient></defs></svg>