<svg xmlns="http://www.w3.org/2000/svg" version="1.1" width="600px" height="600px" viewBox="0 0 200 200" style="overflow:hidden!important;"><defs id="SvgjsDefs15396"></defs><g id="svga-group-wrapper"><g id="svga-group-backs-single"></g><g id="svga-group-humanwrap-move" transform="matrix(1,0,0,1,0,0)"><g id="svga-group-humanwrap" transform="matrix(1,0,0,1,0,0)"><g id="svga-group-hair-back-move" transform="matrix(1,0,0,1,0,0)"><g id="svga-group-hair-back" transform="matrix(1,0,0,1,0,0)"><path id="SvgjsPath16130" d="m138.2 58.5 7.6 15.3-1.2 31.3-5.4 31.4-16.7 24.5-79.2 36s-5.7-16.6-5.7-17.5 21.2-55 21.2-55L50.9 73 79 41.9l35.1 4.5 24.1 12.1z" fill="#2c2219" stroke-width="none" opacity="1"></path></g></g><g id="svga-group-humanbody-back"><path id="SvgjsPath15700" d="m168.2 200-4.6-14.2-34.9-13.4-10.8-9.7-1.4-50.5h-33l-1.4 50.5-10.8 9.7-34.9 13.4-4.6 14.2-3 20h142.4z" fill="#f4baa3" stroke-width="none" opacity="1" stroke="none"></path><path id="SvgjsPath15701" d="m83.5 112.2-1.4 50.5-10.8 9.7-34.9 13.4-4.6 14.2-3 20H39v-20l1.7-13.3 32.1-12.9 14.1-9.5 2-52.1z" fill="#d58464" stroke-width="none" opacity="1" stroke="none"></path></g><g id="svga-group-chinshadow-single"><path id="SvgjsPath15942" d="m116.8 153.2.8-.5-1.1-40.5h-33l-1.2 45.9 6.5 6.7 8.4-.4 8.5.4z" fill="#c66c49" stroke-width="none" opacity="1" stroke="none"></path></g><g id="svga-group-humanbody-front"></g><g id="svga-group-clothes-single"><path id="SvgjsPath16095" d="m100 211.8-21.1-19.4 2.6 27.6h37l2.6-27.6z" fill="#ededed" stroke-width="none" opacity="1"></path><path id="SvgjsPath16096" d="m82.2 159.1-4.2 3.8-14.9 9.2.5.5-26 11.2-3 .7-4.2 15.6-2.8 19.9h56.5l-4.8-53.4 2.8-3.9z" fill="#1d282e" stroke-width="none" opacity="1"></path><path id="SvgjsPath16097" d="m117.8 159.1 4.2 3.8 14.9 9.2-.5.5 26 11.2 3 .7 4.2 15.6 2.8 19.9h-56.5l4.8-53.4-2.8-3.9z" fill="#1d282e" stroke-width="none" opacity="1"></path><path id="SvgjsPath16098" d="m63.1 172.1.5.5-26 11.2-3 .7-4.2 15.6-2.8 19.9H33l1.1-19.6 2.1-11.6 1.8-.4 41.3-19 .1-2.7 2.8-3.9.1-3.6-4.2 3.7-15 9.2zm73.8 0-.5.5 26 11.2 3 .7 4.2 15.6 2.8 19.9H167l-1.1-19.6-2.1-11.6-1.8-.4-41.3-19-.1-2.7-2.8-3.9-.1-3.6 4.2 3.7 15 9.2z" fill="#101a1f" stroke-width="none" opacity="1"></path><path id="SvgjsPath16099" d="m74.4 171.6-9.9 10.9 8.4 37.6h-1.6l-8.8-37.6 7.2-6.9-6.2-3 6.9 1.9 4-2.9zm7.8-12.5-5 8.6 6.5 52.3h.4l-4.8-53.4 2.8-3.9.1-3.6zm-38.5 40-7.1-13.8 6 15.4 2.3 19.3h1.9l-3.1-20.9zm81.9-27.5 9.9 10.9-8.4 37.6h1.6l8.8-37.6-7.2-6.9 6.2-3-6.9 1.9-4-2.9zm-7.8-12.5 5 8.6-6.5 52.3h-.4l4.8-53.4-2.8-3.9-.1-3.6zm38.5 40 7.1-13.8-6 15.4-2.3 19.3h-1.9l3.1-20.9z" fill="#070c0f" stroke-width="none" opacity="1"></path><path id="SvgjsPath16100" d="m73.7 173.4-8.2 9.4 8.5 36.6-5.9-36.6 5.6-9.4zm52.6 0 8.2 9.4-8.5 36.6 5.9-36.6-5.6-9.4z" fill="#2d373d" stroke-width="none" opacity="1"></path></g><g id="svga-group-head" transform="matrix(1,0,0,1,0,0)"><g id="svga-group-ears-left-move" transform="matrix(1,0,0,1,0,0)"><g id="svga-group-ears-left" transform="matrix(1,0,0,1,0,0)"><path id="SvgjsPath15900" d="M65.4 98.1 55.2 87l-5.4 1.3 4.4 13.8-.1 8.8 4.1 8.5 3.8-.6 4.9-9.3z" fill="#f4baa3" stroke-width="none" opacity="1" stroke="none"></path><path id="SvgjsPath15901" d="m53.8 97.9-2.3-8.8L59 102l-1.4.2 2.1 5.5-.1 5.1-4-3.7-.1-10.8-2.1-4.5z" fill="#d58464" stroke-width="none" opacity="1" stroke="none"></path><path id="SvgjsPath15902" d="M51.67 87.86 55.2 87l10.2 11.1 1.5 11.4-4.9 9.3-3.8.6-1.86-3.86c1.4 1.3 2.46 2.36 2.46 2.36l2.5-2s1-10.8 1.1-11.2c.1-.4-5.5-11.8-5.5-11.8l-5.23-5.04z" fill="#e59e82" stroke-width="none" opacity="1" stroke="none"></path></g></g><g id="svga-group-ears-right-move" transform="matrix(1,0,0,1,0,0)"><g id="svga-group-ears-right" transform="matrix(1,0,0,1,0,0)"><path id="SvgjsPath15903" d="M134.6 98.1 144.8 87l5.4 1.3-4.4 13.8.1 8.8-4.1 8.5-3.8-.6-4.9-9.3z" fill="#f4baa3" stroke-width="none" opacity="1" stroke="none"></path><path id="SvgjsPath15904" d="m146.2 97.9 2.3-8.8L141 102l1.4.2-2.1 5.5.1 5.1 4-3.7.1-10.8 2.1-4.5z" fill="#d58464" stroke-width="none" opacity="1" stroke="none"></path><path id="SvgjsPath15905" d="M148.34 87.87 144.8 87l-10.2 11.1-1.5 11.4 4.9 9.3 3.8.6 1.93-4.04c-1.4 1.3-2.53 2.54-2.53 2.54l-2.5-2s-1-10.8-1.1-11.2c-.1-.4 5.5-11.8 5.5-11.8l5.24-5.03z" fill="#e59e82" stroke-width="none" opacity="1" stroke="none"></path></g></g><g id="svga-group-faceshape-wrap" transform="matrix(1,0,0,1,0,0)"><g id="svga-group-faceshape-single"><path id="SvgjsPath15932" d="M136.8 61c-6.7-11.2-19-18.9-19-18.9-7-1.5-17.8-2.2-17.8-2.2s-10.8.8-17.8 2.2c0 0-12.4 7.6-19 18.9 0 0-5 14-5.2 23.9l4 48.1 18.4 13.2 11.2 11.6 8.4-.4 8.4.4 11.2-11.6L138 133l4-48.1c-.3-9.8-5.2-23.9-5.2-23.9z" fill="#f4baa3" stroke-width="none" opacity="1" stroke="none"></path><path id="SvgjsPath15933" d="m84.6 145.1-14.8-17-8.4-44.8 5-21.4 17-17.5 16.4-3.3 18 1c-7-1.5-17.8-2.2-17.8-2.2s-10.8.8-17.8 2.2c0 0-12.4 7.6-19 18.9 0 0-5 14-5.2 23.9l4 48.1 18.4 13.2 11.2 11.6 8.4-.4-8-.5-7.4-11.8z" fill="#d58464" stroke-width="none" opacity="1" stroke="none"></path></g></g><g id="svga-group-mouth-single-move" transform="matrix(1,0,0,1,0,0)"><g id="svga-group-mouth-single" transform="matrix(1,0,0,1,0,0)"><path id="SvgjsPath15887" d="m88.7 133.3 6.1 3.3h11l6.5-2.8-6-2.7H93.5z" fill="#e0a4a0" stroke-width="none" opacity="1" transform="translate(0 3)" stroke="none"></path><path id="SvgjsPath15888" d="m89.8 133.4-1.5.2-2-1.5 2.3-3 6.6-2.9 5.1 1.9 5.7-2.2 6.5 3.7 2.1 2.4-1.9 2h-1.6l-5.5-2.1-5.5.6-6-.6z" fill="#d18580" stroke-width="none" opacity="1" transform="translate(0 3)" stroke="none"></path><path id="SvgjsPath15889" d="m86.7 132 2.3-2.7 6.1-2.6 4.6 1.6-4.6-1.2-5.8 2.4-2.6 2.5zm24.1 1.7-4.8-2.4 1.7-.9-2.2.8-5.4.6-5.9-.4 6.1.8 5.5-.7 5 2.2z" fill="#e8b4b1" stroke-width="none" opacity="1" transform="translate(0 3)" stroke="none"></path></g></g><g id="svga-group-eyes-left-move" transform="matrix(1,0,0,1,0,0)"><g id="svga-group-eyes-left" transform="matrix(1,0,0,1,0,0)"><g id="svga-group-eyesback-left"><path id="SvgjsPath15994" d="M90.9 101.4 86 95.8l-8.2.5s-3.7 4.1-6 7.5c0 0 5 2.8 6.3 3.5h5.2l7.6-5.9z" fill="#ffffff" stroke-width="none" opacity="1"></path></g><g id="svga-group-eyesiriswrapper-left" transform="matrix(1,0,0,1,0,0)"><g id="svga-group-eyesiriscontrol-left" transform="matrix(1,0,0,1,0,0)"><g id="svga-group-eyesiris-left" transform="matrix(1,0,0,1,0,0)"><path id="SvgjsPath15946" d="M77.2 101.9v-5l4.4-2.5 4.3 2.5v5l-4.3 2.6z" fill="#8ab42d" stroke-width="none" opacity="1"></path><path id="SvgjsPath15947" d="m79.3 103.2 2.3 1.3 4.3-2.6v-3.7L83.7 97l-4.4 2.5z" fill="#9cc344" stroke-width="none" opacity="1"></path><path id="SvgjsPath15948" d="m81.6 94.6 4.1 2.4v4.8l-4.1 2.4-4.1-2.4V97l4.1-2.4m0-.5L77 96.8v5.3l4.6 2.7 4.6-2.7v-5.3l-4.6-2.7z" fill="#8ab42d" stroke-width="none" opacity="1"></path><path id="SvgjsPath15949" d="M82.7 97.4h-2.3l-1.2 2 1.2 2h2.3l1.2-2z" fill="#000000" stroke-width="none" opacity="1"></path><path id="SvgjsPath15950" d="M79.8 96.8h1.8v1.8h-1.8v-1.8z" fill="#ffffff" stroke-width="none" opacity="1"></path><path id="SvgjsPath15951" d="M82 100.8h1v1h-1v-1z" fill="#ffffff" stroke-width="none" opacity="1"></path></g></g></g><g id="svga-group-eyesfront-left"><path id="SvgjsPath16002" d="M68 94.5v11.1l7.7 7.9h10.9l7.7-7.9V94.5l-7.7-7.9H75.7L68 94.5zm3.8 9.3c2.4-3.4 6-7.5 6-7.5l8.2-.5 4.8 5.5-7.6 6H78c-1.2-.7-6.2-3.5-6.2-3.5z" fill="#f4baa3" stroke-width="none" opacity="1" stroke="none"></path><path id="SvgjsPath16003" d="m91.7 100.9-5.9-9.3s-8.9 0-11.3.5c0 0-3.9 10.6-4.9 12.8l2.3-.9 6-7.4L86 96l4.8 5.4.9-.5z" fill="#ecac92" stroke-width="none" opacity="1" stroke="none"></path><path id="SvgjsPath16004" d="m68.9 105 2.6-1.2 1.2-1.6-1.3.2-2.9-.9 2.9.3 2.2-.7 1.2-1.4-1.3-.3-1.7-1.4 1.9.7 1.8.1 1.1-1.4-.9-.8L75 95l1.2 1.2 1 .5.5-.6 8.3-.3 3.3 3.9-3.4-3.5-7.9.5-5.6 7.1 1 .9-4.1 1.2-3.8-.2z" fill="#09112e" stroke-width="none" opacity="1" stroke="none"></path><path id="SvgjsPath16005" d="m74 105-.9.9-.8 1 1.4-.8.8-.8z" fill="#09112e" stroke-width="none" opacity="1" stroke="none"></path><path id="SvgjsPath16006" d="m75.7 106-.5.8-.5 1.1.9-.9.6-.7z" fill="#09112e" stroke-width="none" opacity="1" stroke="none"></path><path id="SvgjsPath16007" d="m77.5 107-.5.9-.2.7.6-.6.5-.8z" fill="#09112e" stroke-width="none" opacity="1" stroke="none"></path></g></g></g><g id="svga-group-eyes-right-move" transform="matrix(1,0,0,1,0,0)"><g id="svga-group-eyes-right" transform="matrix(1,0,0,1,0,0)"><g id="svga-group-eyesback-right"><path id="SvgjsPath15995" d="m109.1 101.4 4.8-5.5 8.2.5s3.7 4.1 6 7.5c0 0-5 2.8-6.3 3.5h-5.2l-7.5-6z" fill="#ffffff" stroke-width="none" opacity="1"></path></g><g id="svga-group-eyesiriswrapper-right" transform="matrix(1,0,0,1,0,0)"><g id="svga-group-eyesiriscontrol-right" transform="matrix(1,0,0,1,0,0)"><g id="svga-group-eyesiris-right" transform="matrix(1,0,0,1,0,0)"><path id="SvgjsPath15952" d="M114.1 101.9v-5l4.3-2.5 4.4 2.5v5l-4.4 2.6z" fill="#8ab42d" stroke-width="none" opacity="1"></path><path id="SvgjsPath15953" d="m116.2 103.2 2.2 1.3 4.4-2.6v-3.7l-2.2-1.2-4.4 2.5z" fill="#9cc344" stroke-width="none" opacity="1"></path><path id="SvgjsPath15954" d="m118.4 94.6 4.1 2.4v4.8l-4.1 2.4-4.1-2.4V97l4.1-2.4m0-.5-4.6 2.7v5.3l4.6 2.7 4.6-2.7v-5.3l-4.6-2.7z" fill="#699507" stroke-width="none" opacity="1"></path><path id="SvgjsPath15955" d="M119.6 97.4h-2.3l-1.2 2 1.2 2h2.3l1.2-2z" fill="#000000" stroke-width="none" opacity="1"></path><path id="SvgjsPath15956" d="M116.7 96.8h1.8v1.8h-1.8v-1.8z" fill="#ffffff" stroke-width="none" opacity="1"></path><path id="SvgjsPath15957" d="M118.9 100.8h1v1h-1v-1z" fill="#ffffff" stroke-width="none" opacity="1"></path></g></g></g><g id="svga-group-eyesfront-right"><path id="SvgjsPath16008" d="M124.3 86.6h-10.9l-7.7 7.9v11.1l7.7 7.9h10.9l7.7-7.9V94.5l-7.7-7.9zm-2.4 20.7h-5.2l-7.6-6 4.8-5.5 8.2.5s3.7 4.1 6 7.5c.1 0-4.9 2.8-6.2 3.5z" fill="#f4baa3" stroke-width="none" opacity="1" stroke="none"></path><path id="SvgjsPath16011" d="m108.3 100.9 5.9-9.3s8.9 0 11.3.5c0 0 3.9 10.6 4.9 12.8l-2.3-.9-6-7.4-8.1-.6-4.8 5.4-.9-.5z" fill="#ecac92" stroke-width="none" opacity="1" stroke="none"></path><path id="SvgjsPath16012" d="m131.1 105-2.6-1.2-1.2-1.6 1.3.2 2.9-.9-2.9.3-2.2-.7-1.2-1.4 1.3-.3 1.7-1.4-1.9.7-1.8.1-1.1-1.4.9-.8.7-1.6-1.2 1.2-1 .5-.5-.6-8.3-.3-3.3 3.9 3.4-3.5 7.9.5 5.6 7.1-1 .9 4.1 1.2 3.8-.2z" fill="#09112e" stroke-width="none" opacity="1" stroke="none"></path><path id="SvgjsPath16013" d="m126 105 .9.9.8 1-1.4-.8-.8-.8z" fill="#09112e" stroke-width="none" opacity="1" stroke="none"></path><path id="SvgjsPath16014" d="m124.3 106 .5.8.5 1.1-.9-.9-.6-.7z" fill="#09112e" stroke-width="none" opacity="1" stroke="none"></path><path id="SvgjsPath16015" d="m122.5 107 .5.9.2.7-.6-.6-.5-.8z" fill="#09112e" stroke-width="none" opacity="1" stroke="none"></path></g></g></g><g id="svga-group-facehighlight-single"></g><g id="svga-group-eyebrows-left-move" transform="matrix(1,0,0,1,0,0)"><g id="svga-group-eyebrows-left-rotate" transform="matrix(1,0,0,1,0,0)"><g id="svga-group-eyebrows-left" transform="matrix(1,0,0,1,0,0)"><path id="SvgjsPath16073" d="m93.2 89.1-.6 1.9-2.1 1.2-11.6-5.5-7.1-.1-4.9 3.1 4.3-4.7 7.5-1.4 9.1 2.7z" fill="#3b3128" stroke-width="none" opacity="1"></path><path id="SvgjsPath16074" d="m90 87.5.8.4-.4 2.5-.4-2.9zm-5.5-2.2 1.4 2.4-1.9-2.5.5.1zm3.3 1 .3.2c.2 1.3.5 3.4.5 3.4l-1.4-3.7.6.1zm-5.6-1.6.7 1.3-2-1.7 1.3.4zM71 86.3c-.1 0 0 0 0 0zm-1.7.7c.7-.3 1.3-.6 1.6-.7-.3.2-1.4 1-2.5 1.7l.9-1zm6-2.7 1.6 1.6-2.1-1.5.5-.1zm-4.1.7 1.5-.3 2.3.7c0 .1-2.2-.2-3.8-.4z" fill="#4a423a" stroke-width="none" opacity="1"></path></g></g></g><g id="svga-group-eyebrows-right-move" transform="matrix(1,0,0,1,0,0)"><g id="svga-group-eyebrows-right-rotate" transform="matrix(1,0,0,1,0,0)"><g id="svga-group-eyebrows-right" transform="matrix(1,0,0,1,0,0)"><path id="SvgjsPath16075" d="m106.8 89.1.6 1.9 2.1 1.2 11.6-5.5 7.1-.1 4.9 3.1-4.3-4.7-7.5-1.4-9.1 2.7z" fill="#3b3128" stroke-width="none" opacity="1"></path><path id="SvgjsPath16076" d="m110 87.5-.8.4.4 2.5.4-2.9zm5.5-2.2-1.4 2.4 1.9-2.5-.5.1zm-3.3 1-.3.2c-.2 1.3-.5 3.4-.5 3.4l1.4-3.7-.6.1zm5.6-1.6-.7 1.3 2-1.7-1.3.4zm11.2 1.6c.1 0 0 0 0 0zm1.7.7c-.7-.3-1.4-.6-1.6-.7.3.2 1.4 1 2.5 1.7l-.9-1zm-6-2.7-1.6 1.6 2.1-1.5-.5-.1zm4.1.7-1.5-.3-2.3.7c0 .1 2.2-.2 3.8-.4z" fill="#4a423a" stroke-width="none" opacity="1"></path></g></g></g><g id="svga-group-nose-single-move" transform="matrix(1,0,0,1,0,0)"><g id="svga-group-nose-single" transform="matrix(1,0,0,1,0,0)"><path id="SvgjsPath16054" d="m100.48 98.32 2.07 11.85.27 9.2-1.8 1.74-1.07-.28.13-22.72z" fill="#fcc9b5" stroke-width="none" opacity="1" transform="translate(0 2)"></path><path id="SvgjsPath16055" d="m94.67 121.91-1.2-.68 1.3-10.62 3.7-12.55-2.13-5.98 1.3 6.18L94.03 111l-1.3 10.91 1.94 1.35 2.32-1.64-1.11-.77z" fill="#d58464" stroke-width="none" opacity="1" transform="translate(0 2)"></path><path id="SvgjsPath16056" d="m105.97 111-3.61-12.74 1.3-6.18-2.13 5.98 3.7 12.55 1.3 10.62-1.2.68-1.21-1.06-1.11.77 2.32 1.64 1.94-1.35z" fill="#d58464" stroke-width="none" opacity="1" transform="translate(0 2)"></path><path id="SvgjsPath16057" d="m104.86 119.98-1.57-.19-2.31 2.31h-1.96l-2.31-2.31-1.57.19.74.87 1.11.77 1.48 1.64H101.53l1.48-1.64 1.11-.77z" fill="#d58464" stroke-width="none" opacity="1" transform="translate(0 2)"></path></g></g><g id="svga-group-hair-front" transform="matrix(1,0,0,1,0,0)"><path id="SvgjsPath16124" d="m76.3 163.2-4.6 14.9L60 190.5l.5 11.6-5.7 11-2.9-8.6-10.7-10.7.7-16.2L60 150l3.1-8.5 2.5 4.5 1.7-2.4 2.5 2.8z" fill="#2c2219" stroke-width="none" opacity="1"></path><path id="SvgjsPath16125" d="m120.2 54-21.6 2.3-22.6-1-12.2 13-.3 26.2 6.5 25.2-8.4 29.3-18.7 31.6 1.6 15.2 9 14.2v7.1L48 209l-13.6-10.6-3.5-22.6 7.7-22.3L49 125.4l-8.7-39.7 2.3-10 2.6-19.1 19.7-24.2 25.3-9.1 26.2 5.5 10.2 9.8.9 5.5 12.7 7.6 5.8 22.1-4.3 20.1-3.1.2-3.6-21.2L124.6 62l-4.4-8zm-55.5 93.3-8.5 31-5.9 9 1 12 3.1 5.1.3 8.7 1.5-10.5-2.6-5.1.3-10.5 6.7-7.2 4.1-32.5zm8.7 15.4-9.5 17.7-7.7 9.2 1 9 1 3.3.3-12 11-11.3 3.9-15.9z" fill="#3b3128" stroke-width="none" opacity="1"></path><path id="SvgjsPath16126" d="m88.5 32.4-22.2 7.5-13 19.2 1 17.3 14 41.1-.4 9.1 2-7-6.5-25.2.3-26.2L76 55.3l22.6 1 21.6-2.3-7.7-14.6-24-7zm54 53.8-3.4-3.6-1.3-4.7h6.5l-4.1-3.1-6.7-9L120.2 54l4.2 7.9 10.4 10.9 3.6 21.2 3.1-.2-1.8-7.9 2.8.3zm-21.9-33.5 3.5-3.7 3-3.5-2.2 4.7-4.3 2.5zm-75.5 4 .3 26.8 13.4 41-1.8 25-7.8 18.3 9.2-18.1 3.5-27.2-14.4-41.2-2.4-24.6zm-4.9 29 9.2 40.6-15.1 51.5.1 20.6L48 209.1l5.5 8.1-5.7-11.9L37 198v-21l19.7-55-16.5-36.3z" fill="#332920" stroke-width="none" opacity="1"></path><path id="SvgjsPath16127" d="m86 45.8-15.1 1.9-11.5 17.1 2 18.1 2.2 5.8.2-20.4 12.3-12.9 22.6 1z" fill="#1c150e" stroke-width="none" opacity="1"></path><path id="SvgjsPath16128" d="m121.1 50-4.9-15.1L88 28.4l-24.3 8.2-16.1 22 2.3 22L65.3 120 60 150l-10.8 17.8-9.9 14.3 2 16.1 7.6 5.6-5.9-7.9-1.3-13.2L52.5 165l9.1-16 6.7-31.5-15.2-38.9-1.6-19.7 17.1-21 20.7-6.6 23.2 8.1z" fill="#433931" stroke-width="none" opacity="1"></path><path id="SvgjsPath16129" d="m124.1 54.3 11.5 9.2 5.9 9.2 3.6 2.3-7.2-15.5z" fill="#4a423a" stroke-width="none" opacity="1"></path></g><g id="svga-group-glasses-single-move" transform="matrix(1,0,0,1,0,0)"><g id="svga-group-glasses-single" transform="matrix(1,0,0,1,0,0)"></g></g></g></g></g><rect id="svga-credit-rect" width="200" height="15" x="0" y="185" fill="#ecf0f1" opacity="0.5" style="display: none;"></rect><text id="svga-credit-text" font-family="Avenir Next, Roboto, Helvetica, Arial, sans-serif" font-size="10px" text-anchor="start" font-weight="400" size="10px" anchor="start" weight="400" fill="#333333" x="33.43669891357422" y="182.60824704170227" style="display: none;"><tspan id="SvgjsTspan15444" dy="13" x="33.43669891357422">Created on AvatarMaker.com</tspan></text></g></svg>